<svg xmlns="http://www.w3.org/2000/svg" xmlns:xlink="http://www.w3.org/1999/xlink" viewBox="0 0 1000 1000"><defs><style>.cls-1{fill:url(#linear-gradient);}.cls-2{fill:url(#linear-gradient-2);}.cls-3{fill:url(#linear-gradient-3);}.cls-4{fill:url(#linear-gradient-4);}.cls-5{fill:url(#linear-gradient-5);}.cls-6{fill:url(#linear-gradient-6);}.cls-7{fill:url(#linear-gradient-7);}.cls-8{fill:url(#linear-gradient-8);}</style><linearGradient id="linear-gradient" x1="-11.94268" y1="1118.03057" x2="1194.76987" y2="-338.73644" gradientUnits="userSpaceOnUse"><stop offset="0" stop-color="#fff"/><stop offset="0.08983" stop-color="#dad9e1"/><stop offset="0.23661" stop-color="#a3a1b5"/><stop offset="0.37281" stop-color="#777593"/><stop offset="0.49411" stop-color="#58557a"/><stop offset="0.59605" stop-color="#45426a"/><stop offset="0.66624" stop-color="#3e3b65"/></linearGradient><linearGradient id="linear-gradient-2" x1="666.8078" y1="721.35001" x2="1169.37262" y2="721.35001" gradientUnits="userSpaceOnUse"><stop offset="0" stop-color="#383058"/><stop offset="0.05436" stop-color="#4d4a72"/><stop offset="0.16541" stop-color="#7279a2"/><stop offset="0.27104" stop-color="#8f9ec8"/><stop offset="0.36839" stop-color="#a5b8e3"/><stop offset="0.45448" stop-color="#b1c8f3"/><stop offset="0.52033" stop-color="#b6cef9"/></linearGradient><linearGradient id="linear-gradient-3" x1="71.95595" y1="519.60148" x2="518.32323" y2="519.60148" gradientUnits="userSpaceOnUse"><stop offset="0" stop-color="#383058"/><stop offset="0.1579" stop-color="#3b345c"/><stop offset="0.31578" stop-color="#454068"/><stop offset="0.47375" stop-color="#54537c"/><stop offset="0.63185" stop-color="#6a6f98"/><stop offset="0.79013" stop-color="#8793bc"/><stop offset="0.94642" stop-color="#a9bee8"/><stop offset="1" stop-color="#b6cef9"/></linearGradient><linearGradient id="linear-gradient-4" x1="119.94972" y1="476.24597" x2="573.57093" y2="476.24597" gradientUnits="userSpaceOnUse"><stop offset="0.3476" stop-color="#383058"/><stop offset="0.39735" stop-color="#3f3961"/><stop offset="0.48027" stop-color="#53527b"/><stop offset="0.58611" stop-color="#747ba5"/><stop offset="0.70955" stop-color="#a1b3de"/><stop offset="0.76326" stop-color="#b6cef9"/></linearGradient><linearGradient id="linear-gradient-5" x1="70.06635" y1="584.82948" x2="916.40644" y2="584.82948" gradientUnits="userSpaceOnUse"><stop offset="0" stop-color="#f17adc"/><stop offset="0.06944" stop-color="#e482df"/><stop offset="0.37782" stop-color="#b1a4ec"/><stop offset="0.64681" stop-color="#8cbdf6"/><stop offset="0.86321" stop-color="#75ccfc"/><stop offset="1" stop-color="#6dd2fe"/></linearGradient><linearGradient id="linear-gradient-6" x1="313.88094" y1="454.82027" x2="790.64965" y2="454.82027" gradientUnits="userSpaceOnUse"><stop offset="0.07484" stop-color="#383058"/><stop offset="0.12251" stop-color="#4e4b74"/><stop offset="0.20277" stop-color="#6d739c"/><stop offset="0.28532" stop-color="#8894be"/><stop offset="0.3694" stop-color="#9cadd8"/><stop offset="0.45563" stop-color="#abc0ea"/><stop offset="0.54535" stop-color="#b3caf5"/><stop offset="0.64406" stop-color="#b6cef9"/></linearGradient><linearGradient id="linear-gradient-7" x1="619.28939" y1="348.99098" x2="-211.0517" y2="348.99098" gradientUnits="userSpaceOnUse"><stop offset="0" stop-color="#f37adb"/><stop offset="0.24831" stop-color="#ca94e6"/><stop offset="0.59316" stop-color="#98b5f3"/><stop offset="0.85461" stop-color="#79c9fb"/><stop offset="1" stop-color="#6dd1fe"/></linearGradient><linearGradient id="linear-gradient-8" x1="231.79004" y1="741.29353" x2="883.97998" y2="741.29353" gradientUnits="userSpaceOnUse"><stop offset="0" stop-color="#383058"/><stop offset="0.1199" stop-color="#3e375f"/><stop offset="0.2957" stop-color="#4d4a73"/><stop offset="0.50585" stop-color="#666a93"/><stop offset="0.74257" stop-color="#8996c0"/><stop offset="1" stop-color="#b6cef9"/></linearGradient></defs><g id="LOGO_04" data-name="LOGO 04"><g id="_01" data-name="01"><path class="cls-1" d="M963.09009,500A463.59472,463.59472,0,0,1,747.28,891.61q-6.16517,3.9-12.47,7.59a1.83445,1.83445,0,0,1-.23.15c-17.11011-36.06-30.38013-89.62-23.99-166.43.12988-1.48.26-2.92.3999-4.37.09009-.81.16992-1.62.27-2.42.09009-1.12.23-2.25.36011-3.34.15991-1.41.32983-2.8.52978-4.17.42017-3.22.88013-6.36,1.40015-9.45.15991-.81.3-1.62.43994-2.43.13013-.7.25-1.4.36987-2.07.15015-.75.3-1.5.4502-2.24.52-2.66,1.06006-5.28,1.65991-7.84.54-2.38,1.13013-4.7,1.72-7,.6001-2.3,1.24-4.54,1.90015-6.76.6499-2.22,1.32983-4.4,2.03979-6.58.3501-1.05.72022-2.13,1.09009-3.19.37012-1.05.74-2.1,1.12012-3.14,1.11987-3.13,2.31982-6.16,3.55981-9.13.82007-1.98,1.68018-3.93,2.54-5.84l1.33008-2.84c.44995-.93.88989-1.85,1.35986-2.78.46021-.92.93018-1.86,1.38013-2.75,1.23-2.39,2.49-4.71,3.79-6.98.44995-.83.90991-1.61,1.38989-2.41.32007-.51.63013-1.04.93018-1.53.40991-.7.83984-1.4,1.25976-2.08.22022-.37.4502-.73.67017-1.08.49-.77.97-1.54,1.47-2.29q4.43994-6.795,9.22-12.9c1.13989-1.45,2.28-2.86,3.43994-4.25,1.16016-1.38,2.32007-2.76,3.49-4.08,1.21-1.34,2.38013-2.64,3.58008-3.92a175.41562,175.41562,0,0,1,14.55005-13.83c.52-.44,1.02-.87,1.55-1.29a7.04155,7.04155,0,0,1,.60986-.52c.47-.41.94995-.79,1.41992-1.16.47022-.39.94019-.76,1.40015-1.13.77-.61,1.56006-1.23,2.32983-1.83.90015-.67,1.78028-1.35,2.68018-2.01,1.67993-1.24,3.3501-2.43,5.03-3.58.83984-.57,1.6499-1.13,2.48-1.7a.46594.46594,0,0,0,.09985-.05c2.5-1.68,5.02-3.26,7.53-4.77a.12647.12647,0,0,0,.08008-.06c.81006-.47,1.61987-.95,2.42993-1.43,1.68018-.96,3.36011-1.91,5.03-2.82a.69087.69087,0,0,0,.17993-.12c1.61011-.85,3.19019-1.68,4.78-2.49,1.64014-.81995,3.29-1.63,4.91016-2.42.80981-.37,1.62988-.75,2.43994-1.12.78-.36,1.59009-.72,2.38989-1.08.81006-.36,1.6001-.71,2.39014-1.04.79-.34,1.56006-.67,2.35986-1,2.36011-.96,4.65015-1.87,6.91016-2.73.7-.27,1.3999-.52,2.06982-.77,2.3-.84,4.54-1.59,6.73-2.3.7002-.23,1.41016-.46,2.08008-.67,2.96-.92,5.8-1.74,8.46-2.46a1.62745,1.62745,0,0,0,.3-.07c1.3501-.36,2.65015-.7,3.90015-1.01,1.27-.32,2.48974-.6,3.66992-.87.7-.16,1.36987-.31,2.02-.44.33984-.07.67993-.14,1.03-.22.99-.21,1.94995-.41,2.85986-.59.75-.15,1.49-.29,2.19019-.42.37988-.07.76977-.14,1.13989-.18a8.49231,8.49231,0,0,1,1.07983-.2l.28028-.06c.23-.03.43994-.07.66992-.1.10986-.01.23-.04.33984-.05.1001-.02.2002-.05.29-.06.68994-.11,1.3501-.21,1.9502-.28,1.32983-.2,2.46-.36,3.32983-.45.31006-.04.61011-.08.86011-.1.12988-.02.26-.02.36987-.04.22-.01.40015-.04.56006-.06.21-.01.34009-.04.42993-.04h.04c-.03-.01-.03-.05-.03-.07v-.06c-.05981-.1-.12988-.22-.23-.41v-.01c-.07007-.1-.1499-.23-.25-.37,0-.02-.02-.02-.03-.05-.06006-.07-.11987-.17-.18994-.27-1.98-2.94-8.10986-10.6-21.35986-16.22-.41016-.17-.8501-.34-1.28028-.52-.58984-.23-1.23-.49-1.86987-.72-.74-.27-1.53-.54-2.34009-.81a79.6667,79.6667,0,0,0-9.65991-2.5.71031.71031,0,0,0-.21-.04c-1.42993-.3-2.88989-.54-4.42993-.74a114.83129,114.83129,0,0,0-18.97022-1.13c-.84985.03-1.72.05005-2.58984.09-.54.01-1.09009.04-1.66016.07-.77.04-1.56982.08-2.34985.14-.58008.04-1.17017.07-1.76.12a186.05045,186.05045,0,0,0-22.22,3.13C758.18994,529.92,711.65991,547.65,649.21,585.05c-.58008.34-1.16992.68-1.75,1.05a.33508.33508,0,0,1-.11987.06C602.98,612.84,550.62988,649.38,488.97,698.84q-21.795,17.46-42.5,33.41C362.1499,797.19,290.84009,843.94,231.79,877.55c-.08008-.05-.1499-.11-.23-.16A464.99449,464.99449,0,0,1,78.87012,692.86,459.46177,459.46177,0,0,1,40.18994,555.38a466.62628,466.62628,0,0,1-3.28-55.38q0-15.24.98023-30.24c.12988-1.97.25976-3.95.40991-5.91.02-.2.03-.41.05-.61.08984-1.09.17993-2.17.27-3.26.08984-1.08.18994-2.16.28979-3.24.09009-1.07.19995-2.15.31006-3.24.1001-1.08.21-2.16.33008-3.23.07983-.74.15991-1.48.24-2.23.10986-.94.22-1.89.33008-2.84.10986-.93.22-1.87.33984-2.82q1.06494-8.625,2.55-17.73c.16992-1.05.34985-2.11.53-3.17.17993-1.05.35986-2.1.55-3.16.2-1.14.40991-2.28.61987-3.41q.57019-3.045,1.16016-6.03c.27-1.32.52978-2.64.80981-3.94.45-2.18.92017-4.33,1.39014-6.45.24-1.06.48-2.11.72-3.16.24-1.06.49-2.11.74-3.16.24-1.02.49-2.03.74-3.04.23-.95.47-1.91.71-2.85.52-2.07,1.05-4.12,1.59009-6.13q.78-2.92492,1.57983-5.77c.53-1.9,1.07007-3.76,1.61011-5.6q2.235-7.56,4.71-15.01h.01a459.97014,459.97014,0,0,1,46.37988-98.61C188.6499,124.1,334.14014,36.91,500,36.91,755.76,36.91,963.09009,244.24,963.09009,500Z"/><path class="cls-2" d="M883.66992,543.5v.03c-2.75.82-119.52978,37.36-97.58984,195.31,4.83984,34.9,19.1499,65.16,38.81982,91.15A465.24561,465.24561,0,0,1,747.28,891.61q-6.16517,3.9-12.47,7.59C717.74,863.15,704.5,809.6,710.89014,732.85c.11987-1.47.23974-2.92.38989-4.36.07007-.81.16992-1.62.27-2.41.09985-1.13.23-2.25.36987-3.35q.22522-2.115.51-4.17.6449-4.815,1.41016-9.45c.1499-.84.3-1.62.44995-2.43.11987-.7.23-1.39.35986-2.08.14014-.75.3-1.49.4502-2.23.52-2.66,1.05981-5.28,1.65991-7.84.54-2.38,1.11987-4.7,1.72-7,.59009-2.29,1.23-4.54,1.89014-6.76.63989-2.22,1.33984-4.43,2.0498-6.56995.3501-1.09.7002-2.14,1.08008-3.19.35986-1.05.73-2.11005,1.12012-3.15,1.12988-3.13,2.31982-6.16,3.55981-9.13q1.24512-2.97,2.55-5.84l1.34009-2.84c.43994-.93.87988-1.85,1.34985-2.78.4502-.92.92017-1.83,1.39014-2.74,1.21-2.39,2.49-4.71,3.79-7,.45-.81.91992-1.6,1.37988-2.39.31006-.53.62012-1.04.93994-1.56.40015-.68.82007-1.38,1.25-2.06.21-.37.43994-.72.67017-1.08.48-.77.97-1.54,1.48-2.29,2.93994-4.53,6.02-8.84,9.2-12.88995,1.13989-1.45,2.28-2.86005,3.44995-4.26q1.72523-2.085,3.5-4.1c1.15991-1.32,2.37012-2.61,3.57007-3.88995a175.23443,175.23443,0,0,1,14.54-13.83c.52978-.47,1.02978-.89,1.5498-1.3.22022-.2.43018-.37.61011-.53.49-.39.96-.78,1.43994-1.15.46021-.38.92993-.75,1.38013-1.12.78-.64,1.5498-1.24,2.34985-1.84.88013-.67,1.78-1.35,2.66016-2q2.5199-1.86,5.03979-3.6c.84009-.57,1.65015-1.14,2.47022-1.68a.33051.33051,0,0,0,.09985-.06c2.52-1.68,5.03-3.26,7.54-4.77.02-.01.06006-.01.08008-.05q1.21471-.735,2.42993-1.44c1.67993-.98,3.36011-1.92,5.02-2.82a.6748.6748,0,0,0,.19995-.11005q2.40015-1.305,4.77-2.49c1.63013-.84,3.29-1.65,4.90991-2.42.81006-.39,1.62012-.77,2.43018-1.13.7998-.38,1.60986-.72,2.38989-1.08.81006-.35,1.61011-.71,2.40991-1.04.78028-.34,1.58008-.69,2.34009-1.01,2.37012-.95,4.67017-1.86,6.92017-2.71.69995-.27,1.38989-.53,2.07983-.77,2.29-.84,4.54-1.6,6.71-2.31.7-.23,1.41016-.45,2.09009-.67q4.28979-1.33494,8.16992-2.4a1.62745,1.62745,0,0,0,.3-.07c1.3501-.36,2.65015-.7,3.90015-1.01,1.27-.32,2.48974-.6,3.66992-.87.7-.16,1.36987-.31,2.02-.44.33984-.07.67993-.14,1.03-.22.99-.21,1.94995-.41,2.85986-.59.75-.15,1.49-.29,2.19019-.42.37988-.07.76977-.14,1.13989-.18a8.49231,8.49231,0,0,1,1.07983-.2c.32007-.06.64014-.1.9502-.16.10986-.01.23-.04.33984-.05.7002-.1,1.3501-.19,1.9502-.29,1.32983-.2,2.45-.35,3.31982-.44.32007-.04.62012-.06.86011-.1a2.10843,2.10843,0,0,0,.37988-.04c.21021-.02.41016-.04.56006-.06C883.45,543.53,883.58008,543.5,883.66992,543.5Z"/><path class="cls-3" d="M421.951,613.29327q-20.40445,11.03481-40.70989,22.212c-32.12992,17.71552-64.27408,35.50217-98.93651,47.89594-41.379,14.77-103.248,25.442-114.77392-31.61759C153.72826,583.39746,223.43769,498.548,223.43769,498.548s54.99653-80.86525,181.09658-133.89786c.09971-.057.15668-.09962.19941-.12811q16.69062-7.00075,35.01816-13.29013,7.3422-2.476,14.955-4.838c2.53286-.79683,5.08-1.56519,7.6698-2.31938-43.27159,26.31-82.98549,61.41371-109.267,105.12622C330.86906,486.16849,304.929,557.1301,340.289,594.09793,360.16735,614.87271,395.39916,615.45616,421.951,613.29327Z"/><path class="cls-4" d="M483.37916,338.3543a1.21023,1.21023,0,0,0-.21365.1281c-2.54675,1.5368-5.08,3.14472-7.59823,4.79528-.86814.56921-1.73594,1.13833-2.58984,1.72178-6.94374,4.66717-13.74574,9.76129-20.348,15.21114q-3.39389,2.8173-6.73044,5.74862c-.92477.82532-1.83564,1.65056-2.76041,2.49013-1.39444,1.26643-2.76075,2.547-4.12671,3.82769-1.75018,1.66481-3.47187,3.34386-5.17932,5.07988q-3.223,3.223-6.31774,6.57394-2.47623,2.64663-4.86666,5.36448c-1.3802,1.59368-2.74616,3.18735-4.09788,4.80943-2.07742,2.49013-4.11246,5.03723-6.09019,7.61274q-1.98485,2.58267-3.89882,5.20789a227.48241,227.48241,0,0,0-18.7399,30.50767c-.96784,1.90676-1.90685,3.81344-2.80348,5.7487a.24609.24609,0,0,0-.02814.07113c-.91087,1.93516-1.79291,3.87033-2.63256,5.834-.86815,2.00639-1.70745,4.01268-2.49014,6.04746-.79692,1.99214-1.53687,3.99844-2.26258,6.00482-.35574,1.02447-.72536,2.06327-1.0672,3.11623q-1.96348,5.82685-3.52885,11.78183-1.323,4.97319-2.34769,10.0459c-.17092.79683-.32725,1.60792-.46968,2.419q-1.3017,6.766-2.02045,13.66011c-7.015,66.32293,36.39871,97.92619,103.14832,83.69687a4.07107,4.07107,0,0,0-.427.22772q-25.57,13.468-50.941,27.20645c-26.55179,2.16289-61.7836,1.57944-81.66192-19.19534-35.36-36.96783-9.42-107.92944,12.82063-144.89719,26.28152-43.71251,65.99542-78.81622,109.267-105.12622,6.13257-1.80715,12.33671-3.52885,18.68293-5.151a.50545.50545,0,0,1,.0997-.01424c.057-.01425.09971-.02849.17092-.04265a2.32462,2.32462,0,0,1,.29876-.07121C482.04169,338.68164,482.63921,338.52505,483.37916,338.3543Z"/><path class="cls-5" d="M883.25,542.2c-1.98-2.94-8.10986-10.6-21.35986-16.22-.41016-.17-.8501-.34-1.28028-.52-.58984-.23-1.23-.49-1.86987-.72-.74-.27-1.53-.54-2.34009-.81a79.6667,79.6667,0,0,0-9.65991-2.5.71031.71031,0,0,0-.21-.04c-1.42993-.3-2.88989-.54-4.42993-.74a114.83129,114.83129,0,0,0-18.97022-1.13c-.84985.03-1.72.05005-2.58984.09-.54.01-1.09009.04-1.66016.07-.77.04-1.56982.08-2.34985.14-.58008.04-1.17017.07-1.76.12a186.05045,186.05045,0,0,0-22.22,3.13C758.18994,529.92,711.65991,547.65,649.21,585.05c-.58008.34-1.16992.68-1.75,1.05a.33508.33508,0,0,1-.11987.06C602.98,612.84,550.62988,649.38,488.97,698.84q-21.795,17.46-42.5,33.41C362.1499,797.19,290.84009,843.94,231.79,877.55c-.08008-.05-.1499-.11-.23-.16A464.99449,464.99449,0,0,1,78.87012,692.86,459.46177,459.46177,0,0,1,40.18994,555.38a466.62628,466.62628,0,0,1-3.28-55.38q0-15.24.98023-30.24c84.21-70.55,153.98974-106.16,161-109.66l-.11011.34.7-.63c2.12988-1.18,4.25-2.33,6.36011-3.47.01,0,.10986-.06.26977-.14,3.01026-1.48,30.28028-14.83,34.82007-17.06.40015-.19.64014-.3.64014-.3,3.21-1.54,6.23-2.9,8.78-4.03q6.1798-2.68506,12.25976-5.18c2.79-1.14,5.55-2.23,8.3-3.3.37012-.13,3.17017-1.19,4.21021-1.62A504.82756,504.82756,0,0,1,387.45,296.25c2.44019-.3,4.92017-.65,7.40015-.92,1.56982-.2,3.13989-.37,4.71-.53A460.42908,460.42908,0,0,1,530.75,299.32c1.62012.32,3.23.6,4.81006.91,1.56006.32,3.12988.62,4.66992.93,1.16016.26,2.34009.5,3.48.75,1.18018.26,2.3501.49,3.5.76.91016.21,1.82007.42,2.71.61,1.76.41,3.51.81,5.26,1.27,1.3501.32,2.69995.65,4.06006,1.02,3.61011.9,7.03,1.85,10.23,2.76,1.42993.4,2.86011.81,4.29,1.25.7.22,1.36987.42,2.05005.63.93994.28,1.90991.6,2.85986.88.83008.26,1.65015.53,2.47022.8A239.17647,239.17647,0,0,1,603.76,320.31a.87807.87807,0,0,1,.1499.05.47277.47277,0,0,1,.12012.07,1.9228,1.9228,0,0,0-.24.01h-.05c-.1499,0-.32007.01-.48.01a.30442.30442,0,0,0-.15991.03,3.78717,3.78717,0,0,0-.58008.05h-.01c-1.90991.08-3.82007.18-5.71.29-1.56006.1-3.13013.2-4.67017.32q-3,.18-5.97.44a4.86616,4.86616,0,0,1-.65991.04c-.8501.07-1.67993.16-2.53.21-1.34985.1-2.69995.22-4.03.33-8.11987.71-16.06982,1.57-23.8999,2.55-.69995.08-1.8501.27-3.3999.54a.92912.92912,0,0,1-.23023.04c-6.03.81-11.97,1.68-17.81982,2.65q-7.5,1.215-14.81006,2.6c-2.45.47-4.8501.93-7.27,1.41-4.38013.9-8.68994,1.82-12.96,2.76-3.84009.86005-11.33008,2.69-15.14014,3.64h-.03c-.73974.18-1.33984.33-1.75.45a1.32908,1.32908,0,0,0-.2998.07,1.45921,1.45921,0,0,0-.17017.04.58428.58428,0,0,0-.09985.01c-4.76,1.22-9.43994,2.5-14.07007,3.82-1.54.44-3.08008.89-4.61011,1.34-.00976,0-.02.01-.02978.01-1.28.37-2.56006.75-3.83008,1.13-1.28.38-2.54.78-3.81006,1.17q-7.62012,2.35493-14.96,4.84c-3.05,1.05-6.08008,2.11-9.06006,3.19q-4.485,1.62-8.85986,3.28-2.18994.825-4.3501,1.67-4.31982,1.68-8.55,3.41-2.11487.87-4.2,1.74a1.83157,1.83157,0,0,1-.18994.13c-126.1001,53.03-181.1001,133.9-181.1001,133.9S153.73,583.4,167.53,651.78c11.53,57.06,73.3999,46.39,114.78,31.62C316.97,671.01,349.10986,653.22,381.24,635.51q20.28-11.19,40.71-22.22,25.41028-13.725,50.94019-27.2a1.5371,1.5371,0,0,1,.16992-.05c16.25-8.58,63.5498-33.12,70.86987-36.83a.91465.91465,0,0,0-.15991.01c.13989-.07.27-.13.40991-.21C583.12988,529.24,622.34009,511.2,665,499.9c48.60986-12.88995,100.67993-24.29,150.55005-11.4a108.09191,108.09191,0,0,1,42.52,22.06C867.8999,518.9,876.72,530.86,883.25,542.2Z"/><path class="cls-6" d="M604.02962,320.42539a.8332.8332,0,0,1-.18516.02849H603.816c-.15667.04264-.32724.08537-.48392.128a2.66024,2.66024,0,0,1-.32724.07113c-.02849,0-.057.01424-.09936.01424h-.01424q-8.17491,1.921-15.89439,3.99843c-144.4415,39.31562-177.68134,135.37778-135.87577,192.1528,20.462,27.78982,59.735,35.37407,92.64726,32.4001q-10.77881,5.46407-21.57187,11.07046-24.481,12.69969-48.87751,25.57c-66.74961,14.22932-110.16328-17.37394-103.14832-83.69687q.72535-6.89406,2.02045-13.66011c.14243-.81108.29876-1.62217.46968-2.419q1.02447-5.07988,2.34769-10.0459,1.55808-5.95492,3.52885-11.78183c.34184-1.053.71146-2.09176,1.0672-3.11623.72571-2.00638,1.4799-4.01268,2.26258-6.00482.78269-2.03478,1.622-4.04107,2.49014-6.04746.83965-1.94941,1.72169-3.89882,2.63256-5.834a.24609.24609,0,0,1,.02814-.07113c.91087-1.921,1.83564-3.84194,2.80348-5.7487a227.48241,227.48241,0,0,1,18.7399-30.50767q1.92075-2.62527,3.89882-5.20789c1.97773-2.57551,4.01277-5.12261,6.09019-7.61274,1.35172-1.62208,2.71768-3.21575,4.09788-4.80943q2.39078-2.71073,4.86666-5.36448,3.09478-3.37239,6.31774-6.57394c1.70745-1.736,3.42914-3.41507,5.17932-5.07988,1.366-1.28067,2.73227-2.56126,4.12671-3.82769.92477-.83957,1.83564-1.66481,2.76041-2.49013,2.21985-1.96365,4.46785-3.87042,6.73044-5.74862,6.60225-5.44985,13.40425-10.544,20.348-15.21114.8539-.58345,1.7217-1.15257,2.58984-1.72178,2.51827-1.65056,5.05148-3.25848,7.59823-4.79528a1.21023,1.21023,0,0,1,.21365-.1281h.02849c3.81336-.95334,11.298-2.78889,15.13984-3.6427,4.2688-.9391,8.58032-1.864,12.96306-2.76049,2.41892-.48375,4.82359-.9391,7.271-1.40869q7.29948-1.38727,14.813-2.604c5.84805-.96758,11.78157-1.83555,17.81513-2.64663a1.29306,1.29306,0,0,0,.22755-.04265c1.63623-.21347,3.28671-.42686,4.92329-.64033q11.73918-1.47274,23.90532-2.547c.82542-.07122,1.679-.15659,2.50438-.22772.85355-.05688,1.679-.14226,2.53286-.21338a5.055,5.055,0,0,0,.65449-.04273c1.97772-.17075,3.97-.313,5.97625-.44111,1.53688-.11386,3.10189-.21347,4.66726-.31309,1.89261-.11377,3.79911-.21339,5.706-.29876h.01424a3.87537,3.87537,0,0,1,.58328-.04273.30748.30748,0,0,1,.15667-.0284c.15633,0,.32725-.01424.48358-.01424h.04273A1.38118,1.38118,0,0,1,604.02962,320.42539Z"/><path class="cls-7" d="M604.03071,320.39756a1.98972,1.98972,0,0,0-.27027-.08537,238.6471,238.6471,0,0,0-22.62483-8.42382c-.81117-.27036-1.63623-.54072-2.46164-.79684-.95326-.28452-1.92075-.59761-2.86011-.88221-.683-.21339-1.35172-.41262-2.04894-.62609-1.43717-.44111-2.86011-.85373-4.29728-1.25219-3.2016-.91061-6.6165-1.864-10.2308-2.76049-1.35206-.36989-2.70378-.69723-4.05549-1.02447-1.75018-.45535-3.50036-.85373-5.26478-1.26643-.88239-.185-1.79291-.39838-2.70378-.61185-1.15231-.27036-2.31922-.498-3.50036-.75411-1.13807-.25621-2.31921-.49808-3.48611-.7542-1.53653-.313-3.1019-.61185-4.66726-.92494-1.57926-.313-3.18736-.5976-4.80935-.91061A460.25078,460.25078,0,0,0,399.5551,294.799c-1.565.1565-3.13038.32725-4.70964.52648-2.47589.27036-4.95177.62609-7.39917.92485A504.89408,504.89408,0,0,0,275.11977,324.709c-1.03871.42686-3.84185,1.49406-4.21183,1.62216q-4.11924,1.6008-8.29545,3.30122-6.08325,2.4972-12.26584,5.17949c-2.54711,1.12409-5.56354,2.49013-8.77938,4.02684,0,0-.24214.11385-.6406.29884-4.53907,2.234-31.80232,15.58113-34.81911,17.06094a2.78513,2.78513,0,0,1-.27027.14235q-3.15886,1.70749-6.36046,3.472s-.19941.09953-.58328.28451c-7.01531,3.50045-76.7956,39.11639-161.005,109.66538A460.95052,460.95052,0,0,1,55.76069,368.77725a773.23192,773.23192,0,0,1,86.0274-61.328c67.84958-41.68532,138.16494-73.48713,218.64055-78.42586,15.22948-.93463,46.48256-1.97951,76.93317,2.69509C516.5263,243.87132,575.11942,292.35614,604.03071,320.39756Z"/><path class="cls-8" d="M883.98,543.44h-.04c-.08984,0-.22.03-.42993.04-.15991.02-.34009.05-.56006.06-.10986.02-.24.02-.36987.04-.25.02-.55.06-.86011.1-.86987.09-2,.25-3.32983.45-.6001.07-1.26026.17-1.9502.28-.08984.01-.18994.04-.29.06-.10986.01-.23.04-.33984.05-.23.03-.43994.07-.66992.1l-.28028.06a8.49231,8.49231,0,0,0-1.07983.2c-.37012.04-.76.11-1.13989.18-.7002.13-1.44019.27-2.19019.42-.90991.18-1.86987.38-2.85986.59-.3501.07995-.69019.15-1.03.22-.65015.13-1.32007.28-2.02.44-1.18018.27-2.3999.55-3.66992.87-1.25.31-2.55005.65-3.90015,1.01a1.62745,1.62745,0,0,1-.3.07c-2.65991.72-5.5,1.54-8.46,2.46-.66992.21-1.37988.44-2.08008.67-2.18994.71-4.42993,1.46-6.73,2.3-.66992.25-1.36987.5-2.06982.77-2.26.86-4.55,1.77-6.91016,2.73-.7998.33-1.56982.66-2.35986,1-.79.33-1.58008.68-2.39014,1.04-.7998.36005-1.60986.72-2.38989,1.08-.81006.37-1.63013.75-2.43994,1.12-1.62012.79-3.27,1.6-4.91016,2.42-1.58984.81-3.16992,1.64-4.78,2.49a.69087.69087,0,0,1-.17993.12c-1.66992.91-3.34985,1.86-5.03,2.82-.81006.48-1.61987.96-2.42993,1.43a.12647.12647,0,0,1-.08008.06c-2.51,1.51-5.03,3.09-7.53,4.77a.46594.46594,0,0,1-.09985.05c-.83008.57-1.64014,1.13-2.48,1.7-1.67993,1.15-3.3501,2.34-5.03,3.58-.8999.66-1.78,1.34-2.68018,2.01-.76977.6-1.55981,1.22-2.32983,1.83-.46.37-.92993.74-1.40015,1.13-.47.37-.94995.75-1.41992,1.16a7.04155,7.04155,0,0,0-.60986.52c-.53.42-1.03.85-1.55,1.29A175.41562,175.41562,0,0,0,763.75,603.06c-1.19995,1.28-2.37012,2.58-3.58008,3.92-1.16992,1.32-2.32983,2.7-3.49,4.08-1.15991,1.39-2.30005,2.8-3.43994,4.25q-4.78491,6.09-9.22,12.9c-.5.75-.98,1.52-1.47,2.29-.22.35-.45.71-.67017,1.08-.41992.68-.84985,1.38-1.25976,2.08-.30005.49-.61011,1.02-.93018,1.53-.48.8-.93994,1.58-1.38989,2.41-1.30005,2.27-2.56006,4.59-3.79,6.98-.44995.89-.91992,1.83-1.38013,2.75-.47.93-.90991,1.85-1.35986,2.78l-1.33008,2.84c-.85986,1.91-1.72,3.86-2.54,5.84-1.24,2.97-2.43994,6-3.55981,9.13-.38013,1.04-.75,2.09-1.12012,3.14-.36987,1.06-.74,2.14-1.09009,3.19-.71,2.18-1.38989,4.36-2.03979,6.58-.66016,2.22-1.30005,4.46-1.90015,6.76-.58984,2.3-1.17993,4.62-1.72,7-.59985,2.56-1.13989,5.18-1.65991,7.84-.15015.74-.30005,1.49-.4502,2.24-.11987.67-.23974,1.37-.36987,2.07-.13989.81-.28,1.62-.43994,2.43-.52,3.09-.98,6.23-1.40015,9.45-.2,1.37-.36987,2.76-.52978,4.17-.13013,1.09-.27,2.22-.36011,3.34-.1001.8-.17993,1.61-.27,2.42-.13989,1.45-.27,2.89-.3999,4.37-6.39014,76.81,6.87988,130.37,23.99,166.43A459.84347,459.84347,0,0,1,622.73,946.64c-.08984.03-.16992.06-.27.09a462.28707,462.28707,0,0,1-83.33008,14.73Q519.795,963.08,500,963.09q-19.78491,0-39.15991-1.63a460.26468,460.26468,0,0,1-229.05-83.91c59.05-33.61,130.35986-80.36,214.67993-145.3q20.70007-15.96,42.5-33.41c61.65991-49.46,114.01-86,158.37012-112.68a.33508.33508,0,0,0,.11987-.06c.58008-.37,1.16992-.71,1.75-1.05,62.44995-37.4,108.98-55.13,143.34009-61.98a186.05045,186.05045,0,0,1,22.22-3.13c.58984-.05,1.17993-.08,1.76-.12.78-.06,1.57983-.1,2.34985-.14.57007-.03,1.12012-.06,1.66016-.07.86987-.04,1.74-.06,2.58984-.09a114.83129,114.83129,0,0,1,18.97022,1.13c1.54.2,3,.44,4.42993.74a.71031.71031,0,0,1,.21.04,79.6667,79.6667,0,0,1,9.65991,2.5c.81006.27,1.6001.54,2.34009.81.63989.23,1.28.49,1.86987.72.43018.18.87012.35,1.28028.52,13.25,5.62,19.37988,13.28,21.35986,16.22.07007.1.12988.19995.18994.27.01.03.03.03.03.05.1001.14.17993.27.25.37v.01c.1001.19.17017.31.23.41v.06C883.95,543.39,883.95,543.43,883.98,543.44Z"/></g></g></svg>