<?xml version="1.0" standalone="no"?>
<!DOCTYPE svg PUBLIC "-//W3C//DTD SVG 1.1//EN" "http://www.w3.org/Graphics/SVG/1.1/DTD/svg11.dtd" >
<svg xmlns="http://www.w3.org/2000/svg" xmlns:xlink="http://www.w3.org/1999/xlink" version="1.1">
<metadata>
Created by FontForge 20170731 at Mon Dec 14 17:32:56 2020
 By Aleksey,,,
BabaPro (c) (CreativeKiller). 2020. All Rights Reserved
</metadata>
<defs>
<font id="BABAPROFONT-Bold" horiz-adv-x="1732" >
  <font-face 
    font-family="BABAPRO FONT"
    font-weight="700"
    font-stretch="normal"
    units-per-em="2048"
    panose-1="2 0 8 0 0 0 0 0 0 0"
    ascent="1638"
    descent="-410"
    x-height="1440"
    cap-height="1440"
    bbox="-405 -506 2276 2180"
    underline-thickness="150"
    underline-position="-442"
    unicode-range="U+0020-2212"
  />
<missing-glyph horiz-adv-x="180" 
 />
    <glyph glyph-name=".notdef" horiz-adv-x="180" 
 />
    <glyph glyph-name=".null" horiz-adv-x="0" 
 />
    <glyph glyph-name="nonmarkingreturn" horiz-adv-x="682" 
 />
    <glyph glyph-name="space" unicode=" " horiz-adv-x="700" 
 />
    <glyph glyph-name="space" unicode="&#xa0;" horiz-adv-x="700" 
 />
    <glyph glyph-name="exclam" unicode="!" horiz-adv-x="577" 
d="M16 334h365v-340h-365v340zM0 1393v47h397v-47l-96 -912h-205z" />
    <glyph glyph-name="quotedbl" unicode="&#x22;" horiz-adv-x="1003" 
d="M37 1440h303v-228l-152 -438h-188zM520 1440h303v-228l-151 -438h-189z" />
    <glyph glyph-name="numbersign" unicode="#" horiz-adv-x="1503" 
d="M770 575l49 291h-266l-49 -291h266zM156 301h-156v274h203l49 291h-180v275h227l51 299h301l-51 -299h266l52 299h301l-52 -299h156v-275h-203l-49 -291h180v-274h-227l-53 -307h-301l53 307h-266l-54 -307h-301z" />
    <glyph glyph-name="dollar" unicode="$" horiz-adv-x="1343" 
d="M719 266q112 19 112 123v4q0 56 -28 86q-30 32 -84 51v-264zM494 1169q-47 -5 -78 -39q-31 -30 -31 -79v-4q0 -50 27 -80q27 -32 82 -52v254zM483 2q-123 16 -250 66q-125 52 -233 133l172 250q101 -77 178 -119q76 -41 144 -53v313q-102 28 -189 65q-84 38 -141 91
q-55 53 -82 122q-29 69 -29 158v4q0 86 31 156q32 70 88 123q58 52 141 86q84 31 170 41v121h246v-125q101 -16 197 -54q95 -39 184 -102l-147 -256q-80 55 -142 86q-62 30 -102 41v-297q229 -61 336 -166q108 -104 108 -276v-4q0 -87 -33 -156q-31 -71 -88 -123
q-58 -52 -141 -86t-172 -43v-205h-246v209z" />
    <glyph glyph-name="percent" unicode="%" horiz-adv-x="1790" 
d="M1247 176q52 0 84 49q31 50 31 121v4q0 74 -35 123q-35 51 -84 51q-52 0 -84 -49q-31 -47 -31 -121v-4q0 -74 35 -123q35 -51 84 -51zM367 909q52 0 84 49q30 51 30 121v4q0 74 -35 123q-34 51 -84 51q-52 0 -83 -49q-31 -47 -31 -121v-4q0 -73 35 -122q34 -52 84 -52z
M1243 -23q-83 0 -151 31q-67 31 -115 80q-47 52 -72 117q-24 67 -24 141v4q0 74 26 142q25 67 72 118q49 52 117 82q68 31 151 31t152 -31q66 -30 114 -80q47 -52 72 -116q25 -68 25 -142v-4q0 -74 -27 -141q-25 -67 -72 -119q-49 -52 -116 -82q-69 -31 -152 -31zM1194 1440
h276l-1054 -1446h-277zM362 711q-82 0 -151 30q-67 31 -115 80q-46 52 -71 117q-25 68 -25 141v4q0 74 27 142q25 67 71 118q49 52 117 82q69 31 152 31t151 -31q67 -30 115 -79q46 -53 72 -117q24 -68 24 -142v-4q0 -73 -27 -141q-25 -67 -71 -119q-49 -51 -117 -82
q-69 -30 -152 -30z" />
    <glyph glyph-name="ampersand" unicode="&#x26;" horiz-adv-x="1511" 
d="M535 244q49 0 96 20q48 19 94 55l-262 267q-53 -26 -82 -74q-31 -47 -31 -102v-4q0 -77 53 -119q52 -43 132 -43zM573 895q76 27 121 70q47 43 47 110v4q0 62 -34 95q-35 32 -84 32q-53 0 -88 -37q-35 -34 -35 -102v-4q0 -49 18 -88q22 -40 55 -80zM915 125
q-73 -61 -180 -107q-108 -45 -237 -45q-108 0 -199 31q-93 28 -158 86q-67 55 -104 131q-37 77 -37 172v4q0 135 74 236q71 98 205 160q-53 72 -78 141q-23 70 -23 143v4q0 74 29 142q27 68 86 120q58 55 141 89q84 32 195 32q98 0 174 -28q77 -31 133 -80q56 -52 84 -117
q29 -68 29 -141v-4q0 -71 -23 -129q-21 -59 -61 -105q-40 -47 -99 -82q-56 -37 -118 -61l170 -168q22 34 57 96q34 63 78 143l256 -141q-29 -52 -62 -107l-26 -46q-47 -77 -101 -150l211 -211l-250 -176z" />
    <glyph glyph-name="quotesingle" unicode="'" horiz-adv-x="524" 
d="M37 1440h307v-228l-151 -438h-193z" />
    <glyph glyph-name="parenleft" unicode="(" horiz-adv-x="917" 
d="M590 -303q-304 166 -449 381q-141 215 -141 510t141 510q145 215 449 381l147 -222q-107 -74 -180 -145q-74 -74 -123 -154q-47 -78 -69 -170q-23 -93 -23 -200q0 -108 23 -201q22 -91 69 -170q49 -80 123 -154q73 -71 180 -145z" />
    <glyph glyph-name="parenright" unicode=")" horiz-adv-x="917" 
d="M0 -82q107 74 180 145q74 74 123 154q47 79 70 170q22 93 22 201q0 107 -22 200q-23 92 -70 170q-49 80 -123 154q-73 71 -180 145l147 222q305 -166 449 -381q141 -215 141 -510t-141 -510q-144 -215 -449 -381z" />
    <glyph glyph-name="asterisk" unicode="*" horiz-adv-x="885" 
d="M281 979l-185 -139l-96 166l225 94l-225 94l96 166l185 -139l-29 223h201l-29 -223l184 139l97 -166l-226 -94l226 -94l-97 -166l-184 139l29 -223h-201z" />
    <glyph glyph-name="plus" unicode="+" horiz-adv-x="1245" 
d="M371 573h-371v295h371v369h323v-369h371v-295h-371v-368h-323v368z" />
    <glyph glyph-name="comma" unicode="," horiz-adv-x="618" 
d="M0 -199q216 24 201 193h-127v340h364v-283q0 -203 -102 -295q-102 -91 -307 -94z" />
    <glyph glyph-name="hyphen" unicode="-" horiz-adv-x="1130" 
d="M0 791h950v-312h-950v312z" />
    <glyph glyph-name="hyphen" unicode="&#xad;" horiz-adv-x="1130" 
d="M0 791h950v-312h-950v312z" />
    <glyph glyph-name="period" unicode="." horiz-adv-x="545" 
d="M0 334h365v-340h-365v340z" />
    <glyph glyph-name="slash" unicode="/" horiz-adv-x="1388" 
d="M913 1640h295l-913 -1908h-295z" />
    <glyph glyph-name="zero" unicode="0" horiz-adv-x="1487" 
d="M655 266q65 0 119 31q52 32 92 92q40 58 62 141q22 84 22 183v4q0 98 -22 182q-23 83 -64 143q-42 62 -96 93q-55 32 -117 32q-64 0 -119 -30q-52 -33 -92 -93q-40 -58 -61 -141q-23 -84 -23 -182v-4q0 -99 23 -182q22 -86 63 -144q40 -61 95 -92q54 -33 118 -33z
M651 -31q-150 0 -270 58q-123 58 -207 159q-83 101 -129 236q-45 137 -45 291v4q0 153 45 291q47 134 133 235q84 104 207 162q120 59 270 59q148 0 269 -57q123 -58 206 -160q84 -101 132 -235q45 -138 45 -291v-4q0 -154 -45 -291q-47 -135 -134 -236q-83 -103 -206 -161
q-120 -60 -271 -60z" />
    <glyph glyph-name="one" unicode="1" horiz-adv-x="839" 
d="M315 1114l-247 -61l-68 270l424 127h235v-1456h-344v1120z" />
    <glyph glyph-name="two" unicode="2" horiz-adv-x="1274" 
d="M0 250l479 393q58 48 101 86l14 12q45 44 76 82q28 41 41 78q14 38 14 84q0 92 -49 137q-50 43 -127 43t-137 -45q-62 -43 -152 -157l-242 194q55 71 109 127q56 57 121 96q64 39 143 60q80 20 178 20q114 0 211 -33q94 -33 160 -92q68 -58 102 -141q37 -84 37 -182v-4
q0 -89 -22 -160q-25 -71 -72 -133q-45 -64 -119 -127q-70 -64 -166 -137l-223 -172h617v-285h-1094v256z" />
    <glyph glyph-name="three" unicode="3" horiz-adv-x="1288" 
d="M575 -31q-199 0 -339 70q-141 71 -236 184l236 223q85 -98 163 -141q76 -41 181 -41q79 0 133 43q53 45 53 125v4q0 89 -70 131q-68 45 -194 45h-146l-51 207l336 338h-557v283h1001v-244l-360 -342q62 -12 133 -39t127 -76q57 -49 90 -121q33 -71 33 -169v-5
q0 -101 -37 -186q-34 -86 -102 -152q-70 -64 -170 -100q-101 -37 -224 -37z" />
    <glyph glyph-name="four" unicode="4" horiz-adv-x="1458" 
d="M752 571v404l-344 -404h344zM752 303h-699l-53 229l793 918h292v-879h193v-268h-193v-309h-333v309z" />
    <glyph glyph-name="five" unicode="5" horiz-adv-x="1294" 
d="M553 -31q-178 0 -313 60q-132 58 -240 161l205 244q97 -86 176 -127q79 -39 168 -39q101 0 162 47q61 51 61 146v4q0 92 -65 139q-68 49 -172 49q-65 0 -123 -14q-58 -15 -119 -43l-197 131l41 713h914v-289h-611l-16 -231q22 6 65 12q46 8 107 8q107 0 203 -29
q95 -26 166 -84q70 -57 110 -145q39 -87 39 -207v-4q0 -114 -39 -205q-39 -92 -112 -157q-72 -69 -177 -103q-107 -37 -233 -37z" />
    <glyph glyph-name="six" unicode="6" horiz-adv-x="1343" 
d="M588 252q107 0 168 55q61 58 61 150v4q0 92 -63 147q-63 56 -170 56q-108 0 -168 -54q-62 -55 -62 -147v-4q0 -92 64 -150q62 -57 170 -57zM600 -31q-147 0 -248 41q-103 41 -178 115q-82 83 -127 209q-47 126 -47 338v4q0 166 37 309q40 142 117 248q79 107 202 168
q123 63 289 63q77 0 139 -10q64 -12 119 -33t107 -51q50 -30 100 -70l-178 -260q-53 40 -84 62q-31 20 -66 35q-31 13 -69 20q-35 8 -78 8q-62 0 -109 -22q-46 -25 -80 -68q-33 -43 -55 -104q-21 -61 -26 -109q24 17 94 45q73 31 184 31t207 -31q95 -31 166 -90
q68 -59 108 -145q39 -86 39 -197v-4q0 -111 -43 -201q-40 -92 -116 -159q-74 -68 -179 -105t-225 -37z" />
    <glyph glyph-name="seven" unicode="7" horiz-adv-x="1245" 
d="M672 1155h-672v285h1065v-244l-647 -1202h-387z" />
    <glyph glyph-name="eight" unicode="8" horiz-adv-x="1319" 
d="M569 246q108 0 170 47q62 48 62 125v4q0 83 -66 127q-64 43 -166 43q-101 0 -166 -43q-65 -44 -65 -127v-4q0 -74 61 -123q63 -49 170 -49zM569 854q86 0 138 45q51 46 51 123v4q0 65 -49 115q-51 47 -140 47t-139 -47q-49 -48 -49 -113v-4q0 -77 51 -123q51 -47 137 -47
zM569 -27q-123 0 -227 31q-105 31 -180 86q-78 57 -119 133q-43 78 -43 170v4q0 129 59 213q59 82 170 133q-79 50 -131 123q-49 74 -49 191v4q0 80 37 153q34 72 104 127q69 56 164 86q96 33 215 33q117 0 213 -33q99 -30 166 -86q71 -52 105 -127q37 -73 37 -153v-4
q0 -117 -50 -191q-51 -73 -131 -123q104 -55 168 -133q62 -79 62 -204v-5q0 -98 -43 -178q-41 -77 -119 -135q-75 -55 -180 -86q-105 -29 -228 -29z" />
    <glyph glyph-name="nine" unicode="9" horiz-adv-x="1343" 
d="M580 758q107 0 168 57t61 150v4q0 95 -64 155q-61 58 -172 58q-107 0 -167 -58t-60 -153v-4q0 -96 64 -154q62 -55 170 -55zM520 -31q-163 0 -276 49q-115 49 -211 127l178 256q95 -76 162 -104q69 -29 155 -29q123 0 191 86q67 88 80 203q-21 -18 -97 -45
q-75 -29 -174 -29q-119 0 -219 33q-98 33 -168 94q-70 62 -104 148q-37 87 -37 194v4q0 108 41 201q39 92 113 160q73 68 178 108q105 39 231 39q74 0 135 -10q60 -8 111 -29q53 -18 96 -49q45 -30 84 -69q43 -43 74 -93q31 -49 53 -114q22 -67 35 -150q12 -81 12 -188v-4
q0 -172 -41 -318q-40 -145 -121 -247q-80 -105 -200 -164q-121 -60 -281 -60z" />
    <glyph glyph-name="colon" unicode=":" horiz-adv-x="545" 
d="M0 334h365v-340h-365v340zM0 1104h365v-340h-365v340z" />
    <glyph glyph-name="semicolon" unicode=";" horiz-adv-x="618" 
d="M0 -199q216 24 201 193h-127v340h364v-283q0 -203 -102 -295q-102 -91 -307 -94zM74 1104h364v-340h-364v340z" />
    <glyph glyph-name="less" unicode="&#x3c;" horiz-adv-x="1204" 
d="M0 578v286l1024 449v-307l-688 -283l688 -283v-311z" />
    <glyph glyph-name="equal" unicode="=" horiz-adv-x="1184" 
d="M0 602h1004v-295h-1004v295zM0 1135h1004v-295h-1004v295z" />
    <glyph glyph-name="greater" unicode="&#x3e;" horiz-adv-x="1204" 
d="M0 436l688 283l-688 282v312l1024 -449v-286l-1024 -449v307z" />
    <glyph glyph-name="question" unicode="?" horiz-adv-x="1210" 
d="M295 334h364v-340h-364v340zM326 739l100 101q104 3 180 49q78 47 78 127v4q0 71 -45 104q-44 35 -127 35q-80 0 -152 -33q-70 -33 -155 -118l-205 223q93 100 219 164q124 63 299 63q114 0 209 -28q96 -28 164 -87q68 -55 102 -135q37 -79 37 -180v-4q0 -98 -33 -168
q-30 -70 -86 -121q-57 -50 -133 -82q-77 -30 -151 -45l-25 -127h-240z" />
    <glyph glyph-name="at" unicode="@" horiz-adv-x="2003" 
d="M854 350q43 0 84 21q39 20 72 59q32 37 53 92q18 52 18 117q0 89 -49 137q-51 49 -125 49q-43 0 -84 -20q-43 -21 -73 -57q-33 -36 -54 -91q-18 -53 -18 -114q0 -96 49 -146q50 -47 127 -47zM930 -338q-203 0 -373 72q-172 73 -295 196q-125 124 -192 285
q-70 162 -70 346t70 346q70 164 192 287q123 123 289 197q169 73 362 73q194 0 361 -69q166 -68 289 -183q123 -114 190 -262q70 -146 70 -303q0 -129 -31 -225q-33 -95 -90 -162q-55 -65 -135 -100q-79 -33 -168 -33q-132 0 -209 41q-79 40 -107 72q-36 -34 -116 -74
q-77 -39 -185 -39q-83 0 -155 29q-74 30 -125 82q-53 54 -82 127q-29 71 -29 163q0 108 39 203q37 93 102 164q64 70 152 113q87 41 182 41q114 0 185 -43q69 -42 90 -68l16 82l273 -43l-97 -555q-4 -18 -4 -33q-2 -18 -2 -31q0 -55 35 -90q37 -32 98 -32q49 0 92 24t76 76
q34 52 55 131t21 180q0 141 -62 275q-60 131 -167 231q-105 99 -250 158q-146 59 -312 59q-169 0 -313 -63q-144 -62 -252 -172q-107 -108 -168 -256q-61 -149 -61 -318q0 -172 61 -317q62 -148 170 -256q107 -108 254 -170q148 -62 326 -62q150 0 262 35q114 34 246 111
l51 -80q-126 -76 -260 -119q-136 -41 -299 -41z" />
    <glyph glyph-name="A" unicode="A" 
d="M1552 -14h-362l-418 1028l-301 -740h317v-288h-788l616 1452h318z" />
    <glyph glyph-name="B" unicode="B" horiz-adv-x="1351" 
d="M682 -6h-682v1444h682q255 0 389 -131q100 -98 100 -248q0 -243 -186 -344q186 -99 186 -344q0 -148 -100 -246q-134 -131 -389 -131zM635 283q190 4 190 139q0 86 -61 131q-35 29 -84 29q-23 0 -49 -7l-10 -2l-281 -79v-211h295zM340 782q185 53 264 74q46 13 58 16
q76 18 118 41q45 23 45 91q0 141 -190 145h-295v-367z" />
    <glyph glyph-name="C" unicode="C" horiz-adv-x="1491" 
d="M727 -6q-316 0 -522 211q-205 209 -205 510q0 298 205 510q203 215 534 215q200 0 334 -62q132 -59 227 -157l-208 -242q-158 168 -355 168q-166 0 -276 -125q-111 -122 -111 -303t111 -307q107 -125 276 -125q225 0 363 174l211 -213q-106 -119 -242 -187
q-136 -67 -342 -67z" />
    <glyph glyph-name="D" unicode="D" horiz-adv-x="1536" 
d="M575 -6h-575v1446h575q351 0 564 -209q217 -208 217 -512t-217 -516q-213 -209 -564 -209zM575 291q372 0 416 422q0 381 -416 430h-227v-852h227z" />
    <glyph glyph-name="E" unicode="E" horiz-adv-x="1294" 
d="M0 1438h1114v-293h-1114v293zM313 287h801v-293h-1114v868h696v-293h-383v-282z" />
    <glyph glyph-name="F" unicode="F" horiz-adv-x="1300" 
d="M346 -4h-346v852h768v-299h-422v-553zM1120 1139h-1120v299h1120v-299z" />
    <glyph glyph-name="G" unicode="G" horiz-adv-x="1577" 
d="M768 -53q-344 0 -555 213q-213 211 -213 530q0 304 209 520q210 215 547 228h641v-301h-641q-160 0 -277 -129t-117 -314q0 -196 119 -323q119 -125 297 -125q166 0 281 80v196h-318v285h656v-627q-227 -233 -629 -233z" />
    <glyph glyph-name="H" unicode="H" horiz-adv-x="1421" 
d="M1241 -4h-348v622l-547 -172v-450h-346v1442h346v-635l547 174v461h348v-1442z" />
    <glyph glyph-name="I" unicode="I" horiz-adv-x="528" 
d="M0 1440h348v-1446h-348v1446z" />
    <glyph glyph-name="J" unicode="J" horiz-adv-x="1204" 
d="M492 -45q-311 0 -492 225l219 242q123 -158 264 -158q166 0 181 236v620h-197v322h557v-957q0 -258 -139 -389q-145 -141 -393 -141z" />
    <glyph glyph-name="K" unicode="K" horiz-adv-x="1407" 
d="M1227 -6h-410l-469 536v-536h-348v1446h348v-537l469 537h410l-637 -723z" />
    <glyph glyph-name="L" unicode="L" horiz-adv-x="1245" 
d="M1065 -8h-1065v1448h348v-1149h717v-299z" />
    <glyph glyph-name="M" unicode="M" horiz-adv-x="1648" 
d="M1468 -8h-346v895l-219 -332v-563h-338v551l-223 338v-889h-342v1448h369l366 -557l365 557h368v-1448z" />
    <glyph glyph-name="N" unicode="N" horiz-adv-x="1489" 
d="M1309 -8h-297l-668 876v-876h-344v1448h317l646 -848v848h346v-1448z" />
    <glyph glyph-name="O" unicode="O" horiz-adv-x="1693" 
d="M758 287q86 0 160 30q74 33 126 91q55 57 84 137q31 79 31 168v4q0 92 -31 170q-30 79 -86 137q-55 58 -129 92q-73 33 -159 33t-160 -33q-73 -31 -125 -90q-55 -58 -86 -135q-31 -78 -31 -170v-4q0 -89 31 -170q31 -78 86 -137t129 -91t160 -32zM754 -8q-166 0 -305 57
q-139 59 -240 158q-98 97 -154 227q-55 131 -55 279v4q0 150 55 280q57 130 156 230q101 101 242 159q139 58 305 58q169 0 307 -58q139 -58 238 -157q100 -99 155 -228q55 -130 55 -280v-4q0 -148 -55 -279q-57 -129 -158 -231q-98 -99 -239 -158q-138 -57 -307 -57z" />
    <glyph glyph-name="P" unicode="P" horiz-adv-x="1349" 
d="M348 -8h-348v1448h602q532 0 567 -502q0 -255 -174 -385q-173 -131 -434 -131l-194 293h215q221 0 235 213q0 209 -242 215h-227v-1151z" />
    <glyph glyph-name="Q" unicode="Q" horiz-adv-x="1736" 
d="M770 289q95 0 168 33l-227 194l211 240l227 -207q29 63 29 174v4q0 92 -31 172q-30 80 -88 139q-55 60 -131 92q-73 35 -162 35t-164 -32q-73 -34 -127 -93q-55 -58 -86 -139q-31 -78 -31 -170v-4q0 -92 31 -172q32 -81 88 -141q55 -59 129 -92q75 -33 164 -33zM1184 104
q-78 -51 -187 -84q-108 -30 -231 -30q-169 0 -309 59q-142 59 -244 158t-158 231q-55 134 -55 285v4q0 151 57 283q56 131 158 235q102 102 244 160q142 59 311 59t311 -59q141 -59 242 -158q102 -101 158 -233q55 -132 55 -283v-4q0 -111 -33 -213q-30 -104 -92 -192
l145 -125l-213 -236z" />
    <glyph glyph-name="R" unicode="R" horiz-adv-x="1456" 
d="M1276 -6h-399l-510 749h284q215 0 226 197q0 200 -232 203h-297v-1149h-348v1446h672q282 0 434 -152q123 -125 123 -327q0 -354 -305 -451z" />
    <glyph glyph-name="S" unicode="S" horiz-adv-x="1331" 
d="M616 -6q-165 0 -325 57q-159 58 -291 176l197 236q113 -92 211 -137t215 -45q89 0 137 32q49 33 49 95v4q0 33 -10 55q-12 22 -39 41q-30 18 -84 37q-46 18 -121 37l-20 6q-108 25 -197 59q-90 32 -152 82q-62 49 -96 119q-33 72 -33 176v4q0 95 35 174q37 80 105 137
q68 58 163 91q94 30 207 30q160 0 293 -47q135 -48 248 -139l-172 -248q-112 75 -199 111q-88 37 -174 37q-83 0 -123 -33q-43 -32 -43 -84v-4q0 -37 15 -60q12 -24 43 -43q31 -18 90 -37q39 -12 92 -26q26 -7 55 -15q110 -29 195 -65q86 -37 145 -86q61 -52 90 -119
t29 -160v-4q0 -104 -39 -186q-37 -82 -108 -139q-72 -58 -170 -88q-101 -31 -218 -31z" />
    <glyph glyph-name="T" unicode="T" horiz-adv-x="1401" 
d="M436 1137h-436v303h1221v-303h-437v-1143h-348v1143z" />
    <glyph glyph-name="U" unicode="U" horiz-adv-x="1462" 
d="M637 -29q-298 0 -467 164q-170 163 -170 479v826h348v-817q0 -179 78 -263q80 -86 215 -86t215 82q78 84 78 256v828h348v-815q0 -163 -45 -285q-44 -120 -127 -203q-84 -82 -205 -125q-121 -41 -268 -41z" />
    <glyph glyph-name="V" unicode="V" horiz-adv-x="1655" 
d="M0 1440h381l360 -973l361 973h373l-584 -1456h-307z" />
    <glyph glyph-name="W" unicode="W" horiz-adv-x="2173" 
d="M1413 -4h-305l-113 280l-112 -280h-303l-580 1444h371l356 -965l90 244l-289 721h371l358 -965l357 965h379z" />
    <glyph glyph-name="X" unicode="X" horiz-adv-x="1593" 
d="M504 729l-484 711h402l289 -447l290 447h392l-484 -707l504 -739h-401l-310 473l-311 -473h-391z" />
    <glyph glyph-name="Y" unicode="Y" horiz-adv-x="1638" 
d="M555 565l-555 875h401l330 -555l336 555h391l-555 -869v-577h-348v571z" />
    <glyph glyph-name="Z" unicode="Z" horiz-adv-x="1407" 
d="M0 240l784 911h-784v289h1227v-246l-785 -911h785v-289h-1227v246z" />
    <glyph glyph-name="bracketleft" unicode="[" horiz-adv-x="874" 
d="M0 1440h694v-256h-362v-1200h362v-256h-694v1712z" />
    <glyph glyph-name="backslash" unicode="\" horiz-adv-x="1388" 
d="M0 1640h295l913 -1908h-295z" />
    <glyph glyph-name="bracketright" unicode="]" horiz-adv-x="874" 
d="M0 -16h362v1200h-362v256h694v-1712h-694v256z" />
    <glyph glyph-name="asciicircum" unicode="^" horiz-adv-x="1040" 
d="M311 1440h238l311 -436h-256l-176 225l-176 -225h-252z" />
    <glyph glyph-name="underscore" unicode="_" horiz-adv-x="1450" 
d="M0 -84h1270v-250h-1270v250z" />
    <glyph glyph-name="grave" unicode="`" horiz-adv-x="717" 
d="M0 1466l293 127l244 -381h-269z" />
    <glyph glyph-name="a" unicode="a" 
d="M1552 -14h-362l-418 1028l-301 -740h317v-288h-788l616 1452h318z" />
    <glyph glyph-name="b" unicode="b" horiz-adv-x="1351" 
d="M682 -6h-682v1444h682q255 0 389 -131q100 -98 100 -248q0 -243 -186 -344q186 -99 186 -344q0 -148 -100 -246q-134 -131 -389 -131zM635 283q190 4 190 139q0 86 -61 131q-35 29 -84 29q-23 0 -49 -7l-10 -2l-281 -79v-211h295zM340 782q185 53 264 74q46 13 58 16
q76 18 118 41q45 23 45 91q0 141 -190 145h-295v-367z" />
    <glyph glyph-name="c" unicode="c" horiz-adv-x="1491" 
d="M727 -6q-316 0 -522 211q-205 209 -205 510q0 298 205 510q203 215 534 215q200 0 334 -62q132 -59 227 -157l-208 -242q-158 168 -355 168q-166 0 -276 -125q-111 -122 -111 -303t111 -307q107 -125 276 -125q225 0 363 174l211 -213q-106 -119 -242 -187
q-136 -67 -342 -67z" />
    <glyph glyph-name="d" unicode="d" horiz-adv-x="1536" 
d="M575 -6h-575v1446h575q351 0 564 -209q217 -208 217 -512t-217 -516q-213 -209 -564 -209zM575 291q372 0 416 422q0 381 -416 430h-227v-852h227z" />
    <glyph glyph-name="e" unicode="e" horiz-adv-x="1294" 
d="M0 1438h1114v-293h-1114v293zM313 287h801v-293h-1114v868h696v-293h-383v-282z" />
    <glyph glyph-name="f" unicode="f" horiz-adv-x="1300" 
d="M346 -4h-346v852h768v-299h-422v-553zM1120 1139h-1120v299h1120v-299z" />
    <glyph glyph-name="g" unicode="g" horiz-adv-x="1577" 
d="M768 -53q-344 0 -555 213q-213 211 -213 530q0 304 209 520q210 215 547 228h641v-301h-641q-160 0 -277 -129t-117 -314q0 -196 119 -323q119 -125 297 -125q166 0 281 80v196h-318v285h656v-627q-227 -233 -629 -233z" />
    <glyph glyph-name="h" unicode="h" horiz-adv-x="1421" 
d="M1241 -4h-348v622l-547 -172v-450h-346v1442h346v-635l547 174v461h348v-1442z" />
    <glyph glyph-name="i" unicode="i" horiz-adv-x="528" 
d="M0 1440h348v-1446h-348v1446z" />
    <glyph glyph-name="j" unicode="j" horiz-adv-x="1204" 
d="M492 -45q-311 0 -492 225l219 242q123 -158 264 -158q166 0 181 236v620h-197v322h557v-957q0 -258 -139 -389q-145 -141 -393 -141z" />
    <glyph glyph-name="k" unicode="k" horiz-adv-x="1407" 
d="M1227 -6h-410l-469 536v-536h-348v1446h348v-537l469 537h410l-637 -723z" />
    <glyph glyph-name="l" unicode="l" horiz-adv-x="1245" 
d="M1065 -8h-1065v1448h348v-1149h717v-299z" />
    <glyph glyph-name="m" unicode="m" horiz-adv-x="1648" 
d="M1468 -8h-346v895l-219 -332v-563h-338v551l-223 338v-889h-342v1448h369l366 -557l365 557h368v-1448z" />
    <glyph glyph-name="n" unicode="n" horiz-adv-x="1489" 
d="M1309 -8h-297l-668 876v-876h-344v1448h317l646 -848v848h346v-1448z" />
    <glyph glyph-name="o" unicode="o" horiz-adv-x="1693" 
d="M758 287q86 0 160 30q74 33 126 91q55 57 84 137q31 79 31 168v4q0 92 -31 170q-30 79 -86 137q-55 58 -129 92q-73 33 -159 33t-160 -33q-73 -31 -125 -90q-55 -58 -86 -135q-31 -78 -31 -170v-4q0 -89 31 -170q31 -78 86 -137t129 -91t160 -32zM754 -8q-166 0 -305 57
q-139 59 -240 158q-98 97 -154 227q-55 131 -55 279v4q0 150 55 280q57 130 156 230q101 101 242 159q139 58 305 58q169 0 307 -58q139 -58 238 -157q100 -99 155 -228q55 -130 55 -280v-4q0 -148 -55 -279q-57 -129 -158 -231q-98 -99 -239 -158q-138 -57 -307 -57z" />
    <glyph glyph-name="p" unicode="p" horiz-adv-x="1349" 
d="M348 -8h-348v1448h602q532 0 567 -502q0 -255 -174 -385q-173 -131 -434 -131l-194 293h215q221 0 235 213q0 209 -242 215h-227v-1151z" />
    <glyph glyph-name="q" unicode="q" horiz-adv-x="1736" 
d="M770 289q95 0 168 33l-227 194l211 240l227 -207q29 63 29 174v4q0 92 -31 172q-30 80 -88 139q-55 60 -131 92q-73 35 -162 35t-164 -32q-73 -34 -127 -93q-55 -58 -86 -139q-31 -78 -31 -170v-4q0 -92 31 -172q32 -81 88 -141q55 -59 129 -92q75 -33 164 -33zM1184 104
q-78 -51 -187 -84q-108 -30 -231 -30q-169 0 -309 59q-142 59 -244 158t-158 231q-55 134 -55 285v4q0 151 57 283q56 131 158 235q102 102 244 160q142 59 311 59t311 -59q141 -59 242 -158q102 -101 158 -233q55 -132 55 -283v-4q0 -111 -33 -213q-30 -104 -92 -192
l145 -125l-213 -236z" />
    <glyph glyph-name="r" unicode="r" horiz-adv-x="1456" 
d="M1276 -6h-399l-510 749h284q215 0 226 197q0 200 -232 203h-297v-1149h-348v1446h672q282 0 434 -152q123 -125 123 -327q0 -354 -305 -451z" />
    <glyph glyph-name="s" unicode="s" horiz-adv-x="1331" 
d="M616 -6q-165 0 -325 57q-159 58 -291 176l197 236q113 -92 211 -137t215 -45q89 0 137 32q49 33 49 95v4q0 33 -10 55q-12 22 -39 41q-30 18 -84 37q-46 18 -121 37l-20 6q-108 25 -197 59q-90 32 -152 82q-62 49 -96 119q-33 72 -33 176v4q0 95 35 174q37 80 105 137
q68 58 163 91q94 30 207 30q160 0 293 -47q135 -48 248 -139l-172 -248q-112 75 -199 111q-88 37 -174 37q-83 0 -123 -33q-43 -32 -43 -84v-4q0 -37 15 -60q12 -24 43 -43q31 -18 90 -37q39 -12 92 -26q26 -7 55 -15q110 -29 195 -65q86 -37 145 -86q61 -52 90 -119
t29 -160v-4q0 -104 -39 -186q-37 -82 -108 -139q-72 -58 -170 -88q-101 -31 -218 -31z" />
    <glyph glyph-name="t" unicode="t" horiz-adv-x="1401" 
d="M436 1137h-436v303h1221v-303h-437v-1143h-348v1143z" />
    <glyph glyph-name="u" unicode="u" horiz-adv-x="1462" 
d="M637 -29q-298 0 -467 164q-170 163 -170 479v826h348v-817q0 -179 78 -263q80 -86 215 -86t215 82q78 84 78 256v828h348v-815q0 -163 -45 -285q-44 -120 -127 -203q-84 -82 -205 -125q-121 -41 -268 -41z" />
    <glyph glyph-name="v" unicode="v" horiz-adv-x="1655" 
d="M0 1440h381l360 -973l361 973h373l-584 -1456h-307z" />
    <glyph glyph-name="w" unicode="w" horiz-adv-x="2173" 
d="M1413 -4h-305l-113 280l-112 -280h-303l-580 1444h371l356 -965l90 244l-289 721h371l358 -965l357 965h379z" />
    <glyph glyph-name="x" unicode="x" horiz-adv-x="1593" 
d="M504 729l-484 711h402l289 -447l290 447h392l-484 -707l504 -739h-401l-310 473l-311 -473h-391z" />
    <glyph glyph-name="y" unicode="y" horiz-adv-x="1638" 
d="M555 565l-555 875h401l330 -555l336 555h391l-555 -869v-577h-348v571z" />
    <glyph glyph-name="z" unicode="z" horiz-adv-x="1407" 
d="M0 240l784 911h-784v289h1227v-246l-785 -911h785v-289h-1227v246z" />
    <glyph glyph-name="braceleft" unicode="{" horiz-adv-x="1020" 
d="M782 -297q-162 28 -258 66q-94 37 -151 90q-56 52 -78 116q-23 65 -23 142v30q2 18 2 39q2 21 2 39q3 21 3 33q0 120 -50 164q-49 41 -159 41h-70v250h70q110 0 159 41q50 44 50 164q0 12 -3 32q0 19 -2 39q0 22 -2 39v31q0 77 23 141q22 65 78 117q57 53 151 90
q96 37 258 66l58 -218q-89 -25 -135 -47q-48 -24 -74 -49q-24 -27 -33 -63q-8 -36 -8 -82q0 -25 3 -59q0 -8 1 -17q2 -42 2 -76q0 -110 -55 -178q-56 -65 -152 -96q96 -31 152 -96q55 -68 55 -179q0 -33 -2 -75q-1 -9 -1 -18q-3 -33 -3 -58q0 -46 8 -82q9 -36 33 -64
q26 -24 74 -49q46 -22 135 -47z" />
    <glyph glyph-name="bar" unicode="|" horiz-adv-x="459" 
d="M0 1640h279v-1908h-279v1908z" />
    <glyph glyph-name="braceright" unicode="}" horiz-adv-x="1020" 
d="M0 -80q89 25 135 47q48 25 74 49q24 28 33 64q8 36 8 82q0 31 -2 76q-1 5 -1 11q-3 35 -3 64q0 111 55 179q56 65 152 96q-96 31 -152 96q-55 68 -55 178q0 29 3 65q0 5 1 11q2 45 2 76q0 46 -8 82q-9 36 -33 63q-26 25 -74 49q-46 22 -135 47l57 218q163 -29 258 -66
t152 -90q56 -52 78 -117q22 -64 22 -141v-31q-2 -17 -2 -39q-2 -20 -2 -39q-2 -20 -2 -32q0 -120 49 -164q49 -41 160 -41h70v-250h-70q-111 0 -160 -41q-49 -44 -49 -164q0 -12 2 -33q0 -18 2 -39q0 -21 2 -39v-30q0 -77 -22 -142q-22 -64 -78 -116q-57 -53 -152 -90
q-95 -38 -258 -66z" />
    <glyph glyph-name="asciitilde" unicode="~" horiz-adv-x="1057" 
d="M0 508q18 64 39 117q22 52 53 90q30 40 76 61q44 23 102 23q53 0 97 -13q15 -5 30 -9q29 -9 56 -19q13 -5 25 -10q24 -10 44 -17q31 -12 56 -12q36 0 57 22q21 23 49 82l193 -59q-35 -130 -95 -211q-59 -80 -176 -80q-52 0 -96 12q-16 6 -31 10q-29 9 -55 19q-10 4 -19 7
q-29 12 -53 20q-31 12 -53 12q-37 0 -57 -23q-22 -22 -49 -81z" />
    <glyph glyph-name="exclamdown" unicode="&#xa1;" horiz-adv-x="577" 
d="M381 618h-365v340h365v-340zM397 -441v-47h-397v47l96 912h205z" />
    <glyph glyph-name="dieresis" unicode="&#xa8;" horiz-adv-x="950" 
d="M0 1501h332v-289h-332v289zM438 1501h332v-289h-332v289z" />
    <glyph glyph-name="copyright" unicode="&#xa9;" horiz-adv-x="1696" 
d="M766 313q-92 0 -170 33q-79 34 -133 90q-55 56 -86 129q-31 75 -31 158v4q0 83 31 158q28 73 84 131q57 56 135 90q81 35 176 35q120 0 195 -35q74 -37 133 -92l-127 -148q-62 55 -105 76q-44 23 -96 23q-43 0 -80 -19q-37 -16 -67 -47q-29 -33 -45 -76q-17 -45 -17 -94
v-4q0 -49 17 -94q16 -43 45 -76q28 -31 65 -47q39 -19 82 -19q58 0 100 25q42 22 104 75l1 1l129 -129q-65 -68 -141 -109q-79 -39 -199 -39zM756 63q135 0 252 52q116 50 202 137t138 209q49 121 49 256v4q0 135 -49 256q-52 119 -138 207q-85 87 -200 137q-115 49 -250 49
t-252 -51q-117 -50 -203 -137q-85 -88 -137 -209q-49 -121 -49 -256v-4q0 -135 49 -256q49 -119 135 -207q86 -87 203 -137q115 -50 250 -50zM756 -31q-160 0 -301 60q-139 61 -240 161q-100 104 -158 238q-57 134 -57 285v4q0 150 57 284q59 136 160 238q101 103 242 164
t301 61t301 -59q138 -61 239 -162q101 -103 158 -237q58 -135 58 -285v-4q0 -151 -58 -285q-58 -136 -160 -237q-100 -104 -241 -164q-142 -62 -301 -62z" />
    <glyph glyph-name="registered" unicode="&#xae;" horiz-adv-x="1696" 
d="M801 754q55 0 88 28q31 29 31 78v4q0 59 -33 84q-32 25 -90 25h-154v-219h158zM436 1139h367q169 0 256 -88q69 -69 69 -177v-4q0 -95 -49 -157q-46 -60 -121 -88l197 -287h-235l-168 254h8h-117v-254h-207v801zM756 63q135 0 252 52q116 50 202 137t138 209
q49 121 49 256v4q0 135 -49 256q-52 119 -138 207q-85 87 -200 137q-115 49 -250 49t-252 -51q-117 -50 -203 -137q-85 -88 -137 -209q-49 -121 -49 -256v-4q0 -135 49 -256q49 -119 135 -207q86 -87 203 -137q115 -50 250 -50zM756 -31q-160 0 -301 60q-139 61 -240 161
q-100 104 -158 238q-57 134 -57 285v4q0 150 57 284q59 136 160 238q101 103 242 164t301 61t301 -59q138 -61 239 -162q101 -103 158 -237q58 -135 58 -285v-4q0 -151 -58 -285q-58 -136 -160 -237q-100 -104 -241 -164q-142 -62 -301 -62z" />
    <glyph glyph-name="macron" unicode="&#xaf;" horiz-adv-x="950" 
d="M0 1450h770v-227h-770v227z" />
    <glyph glyph-name="degree" unicode="&#xb0;" horiz-adv-x="921" 
d="M371 913q70 0 123 54q49 51 49 131v4q0 80 -49 131q-53 53 -123 53q-71 0 -123 -53q-49 -51 -49 -131v-4q0 -80 49 -131q52 -54 123 -54zM371 748q-74 0 -144 28q-68 31 -118 78q-53 49 -80 113q-29 63 -29 131v4q0 67 29 131q27 64 80 113q50 46 118 77q70 29 144 29
q73 0 143 -29q69 -31 119 -77q52 -49 80 -113t28 -131v-4q0 -68 -28 -131q-28 -64 -80 -113q-50 -47 -119 -78q-70 -28 -143 -28z" />
    <glyph glyph-name="plusminus" unicode="&#xb1;" horiz-adv-x="1101" 
d="M321 663h-321v255h321v319h279v-319h321v-255h-321v-319h-279v319zM0 267h921v-280h-921v280z" />
    <glyph glyph-name="acute" unicode="&#xb4;" horiz-adv-x="717" 
d="M244 1593l293 -127l-269 -254h-268z" />
    <glyph glyph-name="periodcentered" unicode="&#xb7;" horiz-adv-x="490" 
d="M0 861h310v-288h-310v288z" />
    <glyph glyph-name="periodcentered" unicode="&#x2219;" horiz-adv-x="490" 
d="M0 861h310v-288h-310v288z" />
    <glyph glyph-name="questiondown" unicode="&#xbf;" horiz-adv-x="1210" 
d="M735 618h-364v340h364v-340zM704 213l-100 -101q-104 -3 -180 -49q-78 -47 -78 -127v-4q0 -71 45 -104q44 -35 127 -35q80 0 152 32q70 34 155 119l205 -223q-93 -100 -219 -164q-124 -63 -299 -63q-114 0 -209 28q-96 28 -164 86q-68 56 -102 136q-37 78 -37 180v4
q0 98 33 168q30 69 86 121q57 50 133 82q77 30 151 45l25 127h240z" />
    <glyph glyph-name="Agrave" unicode="&#xc0;" 
d="M1552 -14h-362l-418 1028l-301 -740h317v-288h-788l616 1452h318zM417 1942l293 127l244 -381h-269z" />
    <glyph glyph-name="Aacute" unicode="&#xc1;" 
d="M1552 -14h-362l-418 1028l-301 -740h317v-288h-788l616 1452h318zM840 2069l293 -127l-269 -254h-268z" />
    <glyph glyph-name="Acircumflex" unicode="&#xc2;" 
d="M1552 -14h-362l-418 1028l-301 -740h317v-288h-788l616 1452h318zM617 2022h316l262 -334h-269l-153 127l-154 -127h-264z" />
    <glyph glyph-name="Atilde" unicode="&#xc3;" 
d="M1552 -14h-362l-418 1028l-301 -740h317v-288h-788l616 1452h318zM337 1723q18 65 39 117q22 53 53 90q30 40 76 62q44 22 102 22q53 0 97 -12l30 -10q29 -9 56 -19q13 -5 25 -10q24 -10 44 -17q31 -12 56 -12q36 0 57 23q21 22 49 82l193 -60q-35 -130 -95 -211
q-59 -80 -176 -80q-52 0 -96 13q-16 5 -31 10q-29 9 -55 18q-10 4 -19 8q-29 12 -53 19q-31 12 -53 12q-37 0 -57 -22q-22 -23 -49 -82z" />
    <glyph glyph-name="Adieresis" unicode="&#xc4;" 
d="M1552 -14h-362l-418 1028l-301 -740h317v-288h-788l616 1452h318zM390 1977h332v-289h-332v289zM828 1977h332v-289h-332v289z" />
    <glyph glyph-name="Aring" unicode="&#xc5;" 
d="M1552 -14h-362l-418 1028l-301 -740h317v-288h-788l616 1452h318zM775 1809q43 0 78 33q33 34 33 86v4q0 52 -33 86q-35 33 -78 33t-78 -33q-32 -34 -32 -86v-4q0 -52 32 -86q35 -33 78 -33zM775 1684q-55 0 -102 21q-49 21 -86 55q-34 33 -56 76q-20 43 -20 92v4
q0 49 20 92q22 43 56 76q37 34 86 55q47 21 102 21t103 -21q49 -21 86 -55q33 -33 55 -76q20 -43 20 -92v-4q0 -49 -20 -92q-22 -43 -55 -76q-37 -34 -86 -55q-48 -21 -103 -21z" />
    <glyph glyph-name="AE" unicode="&#xc6;" horiz-adv-x="2450" 
d="M1552 -14h-362l-418 1028l-301 -740h317v-288h-788l616 1452h318zM1156 1438h1114v-293h-1114v293zM1469 287h801v-293h-1114v868h696v-293h-383v-282z" />
    <glyph glyph-name="Egrave" unicode="&#xc8;" horiz-adv-x="1294" 
d="M0 1438h1114v-293h-1114v293zM313 287h801v-293h-1114v868h696v-293h-383v-282zM199 1942l293 127l244 -381h-269z" />
    <glyph glyph-name="Eacute" unicode="&#xc9;" horiz-adv-x="1294" 
d="M0 1438h1114v-293h-1114v293zM313 287h801v-293h-1114v868h696v-293h-383v-282zM622 2069l293 -127l-269 -254h-268z" />
    <glyph glyph-name="Ecircumflex" unicode="&#xca;" horiz-adv-x="1294" 
d="M0 1438h1114v-293h-1114v293zM313 287h801v-293h-1114v868h696v-293h-383v-282zM399 2022h316l262 -334h-269l-153 127l-154 -127h-264z" />
    <glyph glyph-name="Edieresis" unicode="&#xcb;" horiz-adv-x="1294" 
d="M0 1438h1114v-293h-1114v293zM313 287h801v-293h-1114v868h696v-293h-383v-282zM172 1977h332v-289h-332v289zM610 1977h332v-289h-332v289z" />
    <glyph glyph-name="Igrave" unicode="&#xcc;" horiz-adv-x="528" 
d="M0 1440h348v-1446h-348v1446zM-183 1942l293 127l244 -381h-269z" />
    <glyph glyph-name="Iacute" unicode="&#xcd;" horiz-adv-x="528" 
d="M0 1440h348v-1446h-348v1446zM240 2069l293 -127l-269 -254h-268z" />
    <glyph glyph-name="Icircumflex" unicode="&#xce;" horiz-adv-x="528" 
d="M0 1440h348v-1446h-348v1446zM17 2022h316l262 -334h-269l-153 127l-154 -127h-264z" />
    <glyph glyph-name="Idieresis" unicode="&#xcf;" horiz-adv-x="528" 
d="M0 1440h348v-1446h-348v1446zM-210 1977h332v-289h-332v289zM228 1977h332v-289h-332v289z" />
    <glyph glyph-name="Eth" unicode="&#xd0;" horiz-adv-x="1536" 
d="M575 -6h-575v1446h575q351 0 564 -209q217 -208 217 -512t-217 -516q-213 -209 -564 -209zM575 291q372 0 416 422q0 381 -416 430h-227v-852h227zM-405 842h1270v-250h-1270v250z" />
    <glyph glyph-name="Ntilde" unicode="&#xd1;" horiz-adv-x="1489" 
d="M1309 -8h-297l-668 876v-876h-344v1448h317l646 -848v848h346v-1448zM216 1723q18 65 39 117q22 53 53 90q30 40 76 62q44 22 102 22q53 0 97 -12l30 -10q29 -9 56 -19q13 -5 25 -10q24 -10 44 -17q31 -12 56 -12q36 0 57 23q21 22 49 82l193 -60q-35 -130 -95 -211
q-59 -80 -176 -80q-52 0 -96 13q-16 5 -31 10q-29 9 -55 18q-10 4 -19 8q-29 12 -53 19q-31 12 -53 12q-37 0 -57 -22q-22 -23 -49 -82z" />
    <glyph glyph-name="Ograve" unicode="&#xd2;" horiz-adv-x="1693" 
d="M758 287q86 0 160 30q74 33 126 91q55 57 84 137q31 79 31 168v4q0 92 -31 170q-30 79 -86 137q-55 58 -129 92q-73 33 -159 33t-160 -33q-73 -31 -125 -90q-55 -58 -86 -135q-31 -78 -31 -170v-4q0 -89 31 -170q31 -78 86 -137t129 -91t160 -32zM754 -8q-166 0 -305 57
q-139 59 -240 158q-98 97 -154 227q-55 131 -55 279v4q0 150 55 280q57 130 156 230q101 101 242 159q139 58 305 58q169 0 307 -58q139 -58 238 -157q100 -99 155 -228q55 -130 55 -280v-4q0 -148 -55 -279q-57 -129 -158 -231q-98 -99 -239 -158q-138 -57 -307 -57z
M400 1942l293 127l244 -381h-269z" />
    <glyph glyph-name="Oacute" unicode="&#xd3;" horiz-adv-x="1693" 
d="M758 287q86 0 160 30q74 33 126 91q55 57 84 137q31 79 31 168v4q0 92 -31 170q-30 79 -86 137q-55 58 -129 92q-73 33 -159 33t-160 -33q-73 -31 -125 -90q-55 -58 -86 -135q-31 -78 -31 -170v-4q0 -89 31 -170q31 -78 86 -137t129 -91t160 -32zM754 -8q-166 0 -305 57
q-139 59 -240 158q-98 97 -154 227q-55 131 -55 279v4q0 150 55 280q57 130 156 230q101 101 242 159q139 58 305 58q169 0 307 -58q139 -58 238 -157q100 -99 155 -228q55 -130 55 -280v-4q0 -148 -55 -279q-57 -129 -158 -231q-98 -99 -239 -158q-138 -57 -307 -57z
M823 2069l293 -127l-269 -254h-268z" />
    <glyph glyph-name="Ocircumflex" unicode="&#xd4;" horiz-adv-x="1693" 
d="M758 287q86 0 160 30q74 33 126 91q55 57 84 137q31 79 31 168v4q0 92 -31 170q-30 79 -86 137q-55 58 -129 92q-73 33 -159 33t-160 -33q-73 -31 -125 -90q-55 -58 -86 -135q-31 -78 -31 -170v-4q0 -89 31 -170q31 -78 86 -137t129 -91t160 -32zM754 -8q-166 0 -305 57
q-139 59 -240 158q-98 97 -154 227q-55 131 -55 279v4q0 150 55 280q57 130 156 230q101 101 242 159q139 58 305 58q169 0 307 -58q139 -58 238 -157q100 -99 155 -228q55 -130 55 -280v-4q0 -148 -55 -279q-57 -129 -158 -231q-98 -99 -239 -158q-138 -57 -307 -57z
M600 2022h316l262 -334h-269l-153 127l-154 -127h-264z" />
    <glyph glyph-name="Otilde" unicode="&#xd5;" horiz-adv-x="1693" 
d="M758 287q86 0 160 30q74 33 126 91q55 57 84 137q31 79 31 168v4q0 92 -31 170q-30 79 -86 137q-55 58 -129 92q-73 33 -159 33t-160 -33q-73 -31 -125 -90q-55 -58 -86 -135q-31 -78 -31 -170v-4q0 -89 31 -170q31 -78 86 -137t129 -91t160 -32zM754 -8q-166 0 -305 57
q-139 59 -240 158q-98 97 -154 227q-55 131 -55 279v4q0 150 55 280q57 130 156 230q101 101 242 159q139 58 305 58q169 0 307 -58q139 -58 238 -157q100 -99 155 -228q55 -130 55 -280v-4q0 -148 -55 -279q-57 -129 -158 -231q-98 -99 -239 -158q-138 -57 -307 -57z
M320 1723q18 65 39 117q22 53 53 90q30 40 76 62q44 22 102 22q53 0 97 -12l30 -10q29 -9 56 -19q13 -5 25 -10q24 -10 44 -17q31 -12 56 -12q36 0 57 23q21 22 49 82l193 -60q-35 -130 -95 -211q-59 -80 -176 -80q-52 0 -96 13q-16 5 -31 10q-29 9 -55 18q-10 4 -19 8
q-29 12 -53 19q-31 12 -53 12q-37 0 -57 -22q-22 -23 -49 -82z" />
    <glyph glyph-name="Odieresis" unicode="&#xd6;" horiz-adv-x="1693" 
d="M758 287q86 0 160 30q74 33 126 91q55 57 84 137q31 79 31 168v4q0 92 -31 170q-30 79 -86 137q-55 58 -129 92q-73 33 -159 33t-160 -33q-73 -31 -125 -90q-55 -58 -86 -135q-31 -78 -31 -170v-4q0 -89 31 -170q31 -78 86 -137t129 -91t160 -32zM754 -8q-166 0 -305 57
q-139 59 -240 158q-98 97 -154 227q-55 131 -55 279v4q0 150 55 280q57 130 156 230q101 101 242 159q139 58 305 58q169 0 307 -58q139 -58 238 -157q100 -99 155 -228q55 -130 55 -280v-4q0 -148 -55 -279q-57 -129 -158 -231q-98 -99 -239 -158q-138 -57 -307 -57z
M373 1977h332v-289h-332v289zM811 1977h332v-289h-332v289z" />
    <glyph glyph-name="Oslash" unicode="&#xd8;" horiz-adv-x="1693" 
d="M758 287q86 0 160 30q74 33 126 91q55 57 84 137q31 79 31 168v4q0 92 -31 170q-30 79 -86 137q-55 58 -129 92q-73 33 -159 33t-160 -33q-73 -31 -125 -90q-55 -58 -86 -135q-31 -78 -31 -170v-4q0 -89 31 -170q31 -78 86 -137t129 -91t160 -32zM754 -8q-166 0 -305 57
q-139 59 -240 158q-98 97 -154 227q-55 131 -55 279v4q0 150 55 280q57 130 156 230q101 101 242 159q139 58 305 58q169 0 307 -58q139 -58 238 -157q100 -99 155 -228q55 -130 55 -280v-4q0 -148 -55 -279q-57 -129 -158 -231q-98 -99 -239 -158q-138 -57 -307 -57z
M1066 1672h295l-913 -1908h-295z" />
    <glyph glyph-name="Ugrave" unicode="&#xd9;" horiz-adv-x="1462" 
d="M637 -29q-298 0 -467 164q-170 163 -170 479v826h348v-817q0 -179 78 -263q80 -86 215 -86t215 82q78 84 78 256v828h348v-815q0 -163 -45 -285q-44 -120 -127 -203q-84 -82 -205 -125q-121 -41 -268 -41zM283 1942l293 127l244 -381h-269z" />
    <glyph glyph-name="Uacute" unicode="&#xda;" horiz-adv-x="1462" 
d="M637 -29q-298 0 -467 164q-170 163 -170 479v826h348v-817q0 -179 78 -263q80 -86 215 -86t215 82q78 84 78 256v828h348v-815q0 -163 -45 -285q-44 -120 -127 -203q-84 -82 -205 -125q-121 -41 -268 -41zM706 2069l293 -127l-269 -254h-268z" />
    <glyph glyph-name="Ucircumflex" unicode="&#xdb;" horiz-adv-x="1462" 
d="M637 -29q-298 0 -467 164q-170 163 -170 479v826h348v-817q0 -179 78 -263q80 -86 215 -86t215 82q78 84 78 256v828h348v-815q0 -163 -45 -285q-44 -120 -127 -203q-84 -82 -205 -125q-121 -41 -268 -41zM483 2022h316l262 -334h-269l-153 127l-154 -127h-264z" />
    <glyph glyph-name="Udieresis" unicode="&#xdc;" horiz-adv-x="1462" 
d="M637 -29q-298 0 -467 164q-170 163 -170 479v826h348v-817q0 -179 78 -263q80 -86 215 -86t215 82q78 84 78 256v828h348v-815q0 -163 -45 -285q-44 -120 -127 -203q-84 -82 -205 -125q-121 -41 -268 -41zM256 1977h332v-289h-332v289zM694 1977h332v-289h-332v289z" />
    <glyph glyph-name="Yacute" unicode="&#xdd;" horiz-adv-x="1638" 
d="M555 565l-555 875h401l330 -555l336 555h391l-555 -869v-577h-348v571zM794 2069l293 -127l-269 -254h-268z" />
    <glyph glyph-name="agrave" unicode="&#xe0;" 
d="M1552 -14h-362l-418 1028l-301 -740h317v-288h-788l616 1452h318zM417 1946l293 127l244 -381h-269z" />
    <glyph glyph-name="aacute" unicode="&#xe1;" 
d="M1552 -14h-362l-418 1028l-301 -740h317v-288h-788l616 1452h318zM840 2073l293 -127l-269 -254h-268z" />
    <glyph glyph-name="acircumflex" unicode="&#xe2;" 
d="M1552 -14h-362l-418 1028l-301 -740h317v-288h-788l616 1452h318zM617 2026h316l262 -334h-269l-153 127l-154 -127h-264z" />
    <glyph glyph-name="atilde" unicode="&#xe3;" 
d="M1552 -14h-362l-418 1028l-301 -740h317v-288h-788l616 1452h318zM337 1727q18 65 39 117q22 53 53 90q30 40 76 62q44 22 102 22q53 0 97 -12l30 -10q29 -9 56 -19q13 -5 25 -10q24 -10 44 -17q31 -12 56 -12q36 0 57 23q21 22 49 82l193 -60q-35 -130 -95 -211
q-59 -80 -176 -80q-52 0 -96 13q-16 5 -31 10q-29 9 -55 18q-10 4 -19 8q-29 12 -53 19q-31 12 -53 12q-37 0 -57 -22q-22 -23 -49 -82z" />
    <glyph glyph-name="adieresis" unicode="&#xe4;" 
d="M1552 -14h-362l-418 1028l-301 -740h317v-288h-788l616 1452h318zM390 1981h332v-289h-332v289zM828 1981h332v-289h-332v289z" />
    <glyph glyph-name="aring" unicode="&#xe5;" 
d="M1552 -14h-362l-418 1028l-301 -740h317v-288h-788l616 1452h318zM775 1813q43 0 78 33q33 34 33 86v4q0 52 -33 86q-35 33 -78 33t-78 -33q-32 -34 -32 -86v-4q0 -52 32 -86q35 -33 78 -33zM775 1688q-55 0 -102 21q-49 21 -86 55q-34 33 -56 76q-20 43 -20 92v4
q0 49 20 92q22 43 56 76q37 34 86 55q47 21 102 21t103 -21q49 -21 86 -55q33 -33 55 -76q20 -43 20 -92v-4q0 -49 -20 -92q-22 -43 -55 -76q-37 -34 -86 -55q-48 -21 -103 -21z" />
    <glyph glyph-name="ae" unicode="&#xe6;" horiz-adv-x="2457" 
d="M1552 -14h-362l-418 1028l-301 -740h317v-288h-788l616 1452h318zM1162 1438h1114v-293h-1114v293zM1475 287h801v-293h-1114v868h696v-293h-383v-282z" />
    <glyph glyph-name="egrave" unicode="&#xe8;" horiz-adv-x="1294" 
d="M0 1438h1114v-293h-1114v293zM313 287h801v-293h-1114v868h696v-293h-383v-282zM199 1946l293 127l244 -381h-269z" />
    <glyph glyph-name="eacute" unicode="&#xe9;" horiz-adv-x="1294" 
d="M0 1438h1114v-293h-1114v293zM313 287h801v-293h-1114v868h696v-293h-383v-282zM622 2073l293 -127l-269 -254h-268z" />
    <glyph glyph-name="ecircumflex" unicode="&#xea;" horiz-adv-x="1294" 
d="M0 1438h1114v-293h-1114v293zM313 287h801v-293h-1114v868h696v-293h-383v-282zM399 2026h316l262 -334h-269l-153 127l-154 -127h-264z" />
    <glyph glyph-name="edieresis" unicode="&#xeb;" horiz-adv-x="1294" 
d="M0 1438h1114v-293h-1114v293zM313 287h801v-293h-1114v868h696v-293h-383v-282zM172 1981h332v-289h-332v289zM610 1981h332v-289h-332v289z" />
    <glyph glyph-name="igrave" unicode="&#xec;" horiz-adv-x="528" 
d="M0 1440h348v-1446h-348v1446zM-184 1948l293 127l244 -381h-269z" />
    <glyph glyph-name="iacute" unicode="&#xed;" horiz-adv-x="528" 
d="M0 1440h348v-1446h-348v1446zM239 2075l293 -127l-269 -254h-268z" />
    <glyph glyph-name="icircumflex" unicode="&#xee;" horiz-adv-x="528" 
d="M0 1440h348v-1446h-348v1446zM16 2028h316l262 -334h-269l-153 127l-154 -127h-264z" />
    <glyph glyph-name="idieresis" unicode="&#xef;" horiz-adv-x="528" 
d="M0 1440h348v-1446h-348v1446zM-211 1983h332v-289h-332v289zM227 1983h332v-289h-332v289z" />
    <glyph glyph-name="eth" unicode="&#xf0;" horiz-adv-x="1942" 
d="M981 -6h-575v1446h575q351 0 564 -209q217 -208 217 -512t-217 -516q-213 -209 -564 -209zM981 291q372 0 416 422q0 381 -416 430h-227v-852h227zM0 842h1269v-250h-1269v250z" />
    <glyph glyph-name="ntilde" unicode="&#xf1;" horiz-adv-x="1489" 
d="M1309 -8h-297l-668 876v-876h-344v1448h317l646 -848v848h346v-1448zM216 1729q18 65 39 117q22 53 53 90q30 40 76 62q44 22 102 22q53 0 97 -12l30 -10q29 -9 56 -19q13 -5 25 -10q24 -10 44 -17q31 -12 56 -12q36 0 57 23q21 22 49 82l193 -60q-35 -130 -95 -211
q-59 -80 -176 -80q-52 0 -96 13q-16 5 -31 10q-29 9 -55 18q-10 4 -19 8q-29 12 -53 19q-31 12 -53 12q-37 0 -57 -22q-22 -23 -49 -82z" />
    <glyph glyph-name="ograve" unicode="&#xf2;" horiz-adv-x="1693" 
d="M758 287q86 0 160 30q74 33 126 91q55 57 84 137q31 79 31 168v4q0 92 -31 170q-30 79 -86 137q-55 58 -129 92q-73 33 -159 33t-160 -33q-73 -31 -125 -90q-55 -58 -86 -135q-31 -78 -31 -170v-4q0 -89 31 -170q31 -78 86 -137t129 -91t160 -32zM754 -8q-166 0 -305 57
q-139 59 -240 158q-98 97 -154 227q-55 131 -55 279v4q0 150 55 280q57 130 156 230q101 101 242 159q139 58 305 58q169 0 307 -58q139 -58 238 -157q100 -99 155 -228q55 -130 55 -280v-4q0 -148 -55 -279q-57 -129 -158 -231q-98 -99 -239 -158q-138 -57 -307 -57z
M399 1952l293 127l244 -381h-269z" />
    <glyph glyph-name="oacute" unicode="&#xf3;" horiz-adv-x="1693" 
d="M758 287q86 0 160 30q74 33 126 91q55 57 84 137q31 79 31 168v4q0 92 -31 170q-30 79 -86 137q-55 58 -129 92q-73 33 -159 33t-160 -33q-73 -31 -125 -90q-55 -58 -86 -135q-31 -78 -31 -170v-4q0 -89 31 -170q31 -78 86 -137t129 -91t160 -32zM754 -8q-166 0 -305 57
q-139 59 -240 158q-98 97 -154 227q-55 131 -55 279v4q0 150 55 280q57 130 156 230q101 101 242 159q139 58 305 58q169 0 307 -58q139 -58 238 -157q100 -99 155 -228q55 -130 55 -280v-4q0 -148 -55 -279q-57 -129 -158 -231q-98 -99 -239 -158q-138 -57 -307 -57z
M822 2079l293 -127l-269 -254h-268z" />
    <glyph glyph-name="ocircumflex" unicode="&#xf4;" horiz-adv-x="1693" 
d="M758 287q86 0 160 30q74 33 126 91q55 57 84 137q31 79 31 168v4q0 92 -31 170q-30 79 -86 137q-55 58 -129 92q-73 33 -159 33t-160 -33q-73 -31 -125 -90q-55 -58 -86 -135q-31 -78 -31 -170v-4q0 -89 31 -170q31 -78 86 -137t129 -91t160 -32zM754 -8q-166 0 -305 57
q-139 59 -240 158q-98 97 -154 227q-55 131 -55 279v4q0 150 55 280q57 130 156 230q101 101 242 159q139 58 305 58q169 0 307 -58q139 -58 238 -157q100 -99 155 -228q55 -130 55 -280v-4q0 -148 -55 -279q-57 -129 -158 -231q-98 -99 -239 -158q-138 -57 -307 -57z
M599 2032h316l262 -334h-269l-153 127l-154 -127h-264z" />
    <glyph glyph-name="otilde" unicode="&#xf5;" horiz-adv-x="1693" 
d="M758 287q86 0 160 30q74 33 126 91q55 57 84 137q31 79 31 168v4q0 92 -31 170q-30 79 -86 137q-55 58 -129 92q-73 33 -159 33t-160 -33q-73 -31 -125 -90q-55 -58 -86 -135q-31 -78 -31 -170v-4q0 -89 31 -170q31 -78 86 -137t129 -91t160 -32zM754 -8q-166 0 -305 57
q-139 59 -240 158q-98 97 -154 227q-55 131 -55 279v4q0 150 55 280q57 130 156 230q101 101 242 159q139 58 305 58q169 0 307 -58q139 -58 238 -157q100 -99 155 -228q55 -130 55 -280v-4q0 -148 -55 -279q-57 -129 -158 -231q-98 -99 -239 -158q-138 -57 -307 -57z
M319 1733q18 65 39 117q22 53 53 90q30 40 76 62q44 22 102 22q53 0 97 -12l30 -10q29 -9 56 -19q13 -5 25 -10q24 -10 44 -17q31 -12 56 -12q36 0 57 23q21 22 49 82l193 -60q-35 -130 -95 -211q-59 -80 -176 -80q-52 0 -96 13q-16 5 -31 10q-29 9 -55 18q-10 4 -19 8
q-29 12 -53 19q-31 12 -53 12q-37 0 -57 -22q-22 -23 -49 -82z" />
    <glyph glyph-name="odieresis" unicode="&#xf6;" horiz-adv-x="1693" 
d="M758 287q86 0 160 30q74 33 126 91q55 57 84 137q31 79 31 168v4q0 92 -31 170q-30 79 -86 137q-55 58 -129 92q-73 33 -159 33t-160 -33q-73 -31 -125 -90q-55 -58 -86 -135q-31 -78 -31 -170v-4q0 -89 31 -170q31 -78 86 -137t129 -91t160 -32zM754 -8q-166 0 -305 57
q-139 59 -240 158q-98 97 -154 227q-55 131 -55 279v4q0 150 55 280q57 130 156 230q101 101 242 159q139 58 305 58q169 0 307 -58q139 -58 238 -157q100 -99 155 -228q55 -130 55 -280v-4q0 -148 -55 -279q-57 -129 -158 -231q-98 -99 -239 -158q-138 -57 -307 -57z
M372 1987h332v-289h-332v289zM810 1987h332v-289h-332v289z" />
    <glyph glyph-name="oslash" unicode="&#xf8;" horiz-adv-x="1693" 
d="M758 287q86 0 160 30q74 33 126 91q55 57 84 137q31 79 31 168v4q0 92 -31 170q-30 79 -86 137q-55 58 -129 92q-73 33 -159 33t-160 -33q-73 -31 -125 -90q-55 -58 -86 -135q-31 -78 -31 -170v-4q0 -89 31 -170q31 -78 86 -137t129 -91t160 -32zM754 -8q-166 0 -305 57
q-139 59 -240 158q-98 97 -154 227q-55 131 -55 279v4q0 150 55 280q57 130 156 230q101 101 242 159q139 58 305 58q169 0 307 -58q139 -58 238 -157q100 -99 155 -228q55 -130 55 -280v-4q0 -148 -55 -279q-57 -129 -158 -231q-98 -99 -239 -158q-138 -57 -307 -57z
M1066 1672h295l-913 -1908h-295z" />
    <glyph glyph-name="ugrave" unicode="&#xf9;" horiz-adv-x="1462" 
d="M637 -29q-298 0 -467 164q-170 163 -170 479v826h348v-817q0 -179 78 -263q80 -86 215 -86t215 82q78 84 78 256v828h348v-815q0 -163 -45 -285q-44 -120 -127 -203q-84 -82 -205 -125q-121 -41 -268 -41zM283 1948l293 127l244 -381h-269z" />
    <glyph glyph-name="uacute" unicode="&#xfa;" horiz-adv-x="1462" 
d="M637 -29q-298 0 -467 164q-170 163 -170 479v826h348v-817q0 -179 78 -263q80 -86 215 -86t215 82q78 84 78 256v828h348v-815q0 -163 -45 -285q-44 -120 -127 -203q-84 -82 -205 -125q-121 -41 -268 -41zM706 2075l293 -127l-269 -254h-268z" />
    <glyph glyph-name="ucircumflex" unicode="&#xfb;" horiz-adv-x="1462" 
d="M637 -29q-298 0 -467 164q-170 163 -170 479v826h348v-817q0 -179 78 -263q80 -86 215 -86t215 82q78 84 78 256v828h348v-815q0 -163 -45 -285q-44 -120 -127 -203q-84 -82 -205 -125q-121 -41 -268 -41zM483 2028h316l262 -334h-269l-153 127l-154 -127h-264z" />
    <glyph glyph-name="udieresis" unicode="&#xfc;" horiz-adv-x="1462" 
d="M637 -29q-298 0 -467 164q-170 163 -170 479v826h348v-817q0 -179 78 -263q80 -86 215 -86t215 82q78 84 78 256v828h348v-815q0 -163 -45 -285q-44 -120 -127 -203q-84 -82 -205 -125q-121 -41 -268 -41zM256 1983h332v-289h-332v289zM694 1983h332v-289h-332v289z" />
    <glyph glyph-name="yacute" unicode="&#xfd;" horiz-adv-x="1638" 
d="M555 565l-555 875h401l330 -555l336 555h391l-555 -869v-577h-348v571zM794 2075l293 -127l-269 -254h-268z" />
    <glyph glyph-name="ydieresis" unicode="&#xff;" horiz-adv-x="1638" 
d="M555 565l-555 875h401l330 -555l336 555h391l-555 -869v-577h-348v571zM344 1983h332v-289h-332v289zM782 1983h332v-289h-332v289z" />
    <glyph glyph-name="dotlessi" unicode="&#x131;" horiz-adv-x="528" 
d="M0 1440h348v-1446h-348v1446z" />
    <glyph glyph-name="gravecomb" unicode="&#x300;" horiz-adv-x="717" 
d="M0 1466l293 127l244 -381h-269z" />
    <glyph glyph-name="acutecomb" unicode="&#x301;" horiz-adv-x="717" 
d="M244 1593l293 -127l-269 -254h-268z" />
    <glyph glyph-name="uni0302" unicode="&#x302;" horiz-adv-x="1020" 
d="M262 1546h316l262 -334h-269l-153 127l-154 -127h-264z" />
    <glyph glyph-name="tildecomb" unicode="&#x303;" horiz-adv-x="1057" 
d="M0 1247q18 65 39 117q22 53 53 90q30 40 76 62q44 22 102 22q53 0 97 -12l30 -10q29 -9 56 -19q13 -5 25 -10q24 -10 44 -17q31 -12 56 -12q36 0 57 23q21 22 49 82l193 -60q-35 -130 -95 -211q-59 -80 -176 -80q-52 0 -96 13q-16 5 -31 10q-29 9 -55 18q-10 4 -19 8
q-29 12 -53 19q-31 12 -53 12q-37 0 -57 -22q-22 -23 -49 -82z" />
    <glyph glyph-name="uni0304" unicode="&#x304;" horiz-adv-x="950" 
d="M0 1450h770v-227h-770v227z" />
    <glyph glyph-name="uni0307" unicode="&#x307;" horiz-adv-x="512" 
d="M0 1501h332v-289h-332v289z" />
    <glyph glyph-name="uni0308" unicode="&#x308;" horiz-adv-x="950" 
d="M0 1501h332v-289h-332v289zM438 1501h332v-289h-332v289z" />
    <glyph glyph-name="uni030A" unicode="&#x30a;" horiz-adv-x="708" 
d="M264 1333q43 0 78 33q33 34 33 86v4q0 52 -33 86q-35 33 -78 33t-78 -33q-32 -34 -32 -86v-4q0 -52 32 -86q35 -33 78 -33zM264 1208q-55 0 -102 21q-49 21 -86 55q-34 33 -56 76q-20 43 -20 92v4q0 49 20 92q22 43 56 76q37 34 86 55q47 21 102 21t103 -21
q49 -21 86 -55q33 -33 55 -76q20 -43 20 -92v-4q0 -49 -20 -92q-22 -43 -55 -76q-37 -34 -86 -55q-48 -21 -103 -21z" />
    <glyph glyph-name="uni030C" unicode="&#x30c;" horiz-adv-x="1020" 
d="M262 1212l-262 334h264l154 -127l153 127h269l-262 -334h-316z" />
    <glyph glyph-name="endash" unicode="&#x2013;" horiz-adv-x="1196" 
d="M0 604h1016v-250h-1016v250z" />
    <glyph glyph-name="emdash" unicode="&#x2014;" horiz-adv-x="2212" 
d="M0 604h2032v-250h-2032v250z" />
    <glyph glyph-name="quoteleft" unicode="&#x2018;" horiz-adv-x="618" 
d="M0 1061q0 203 102 293q102 92 308 96l28 -139q-215 -24 -200 -193h127v-340h-365v283z" />
    <glyph glyph-name="quoteright" unicode="&#x2019;" horiz-adv-x="618" 
d="M0 907q216 24 201 193h-127v340h364v-283q0 -203 -102 -295q-102 -91 -307 -94z" />
    <glyph glyph-name="quotesinglbase" unicode="&#x201a;" horiz-adv-x="618" 
d="M0 -199q216 24 201 193h-127v340h364v-283q0 -203 -102 -295q-102 -91 -307 -94z" />
    <glyph glyph-name="quotedblleft" unicode="&#x201c;" horiz-adv-x="1138" 
d="M0 1061q0 203 102 293q102 92 308 96l28 -139q-215 -24 -200 -193h127v-340h-365v283zM520 1061q0 203 103 293q101 92 307 96l28 -139q-215 -24 -200 -193h127v-340h-365v283z" />
    <glyph glyph-name="quotedblright" unicode="&#x201d;" horiz-adv-x="1138" 
d="M0 907q216 24 201 193h-127v340h364v-283q0 -203 -102 -295q-102 -91 -307 -94zM520 907q216 24 201 193h-127v340h364v-283q0 -203 -102 -295q-101 -91 -307 -94z" />
    <glyph glyph-name="quotedblbase" unicode="&#x201e;" horiz-adv-x="1138" 
d="M0 -199q216 24 201 193h-127v340h364v-283q0 -203 -102 -295q-102 -91 -307 -94zM520 -199q216 24 201 193h-127v340h364v-283q0 -203 -102 -295q-101 -91 -307 -94z" />
    <glyph glyph-name="bullet" unicode="&#x2022;" horiz-adv-x="905" 
d="M0 1055h725v-676h-725v676z" />
    <glyph glyph-name="ellipsis" unicode="&#x2026;" horiz-adv-x="1911" 
d="M0 334h365v-340h-365v340zM683 334h365v-340h-365v340zM1366 334h365v-340h-365v340z" />
    <glyph glyph-name="fraction" unicode="&#x2044;" horiz-adv-x="1388" 
d="M913 1640h295l-913 -1908h-295z" />
    <glyph glyph-name="fraction" unicode="&#x2215;" horiz-adv-x="1388" 
d="M913 1640h295l-913 -1908h-295z" />
    <glyph glyph-name="uni2116" unicode="&#x2116;" horiz-adv-x="180" 
 />
    <glyph glyph-name="trademark" unicode="&#x2122;" horiz-adv-x="1497" 
d="M188 1300h-188v140h553v-140h-188v-503h-177v503zM653 1440h181l153 -248l154 248h176v-643h-168v381l-113 -179h-102l-113 179v-381h-168v643z" />
    <glyph glyph-name="minus" unicode="&#x2212;" horiz-adv-x="844" 
d="M0 791h664v-312h-664v312z" />
    </font>
</defs>
</svg>
